<?xml version="1.0" standalone="no"?>
<!DOCTYPE svg PUBLIC "-//W3C//DTD SVG 1.1//EN" "http://www.w3.org/Graphics/SVG/1.1/DTD/svg11.dtd" >
<svg xmlns="http://www.w3.org/2000/svg">
<metadata>
This is a custom SVG webfont generated by Font Squirrel.
Copyright   :  19902008 Apple Inc  199098 Type Solutions Inc  199098 The Font Bureau Inc  TrueType outline design of Geneva typeface created by Kris Holmes and Charles Bigelow
</metadata>
<defs>
<font id="webfontJVzkRI7c" horiz-adv-x="1363" >
<font-face units-per-em="2048" ascent="1614" descent="-434" />
<missing-glyph horiz-adv-x="681" />
<glyph unicode=" "  horiz-adv-x="681" />
<glyph unicode="&#x09;" horiz-adv-x="681" />
<glyph unicode="&#xa0;" horiz-adv-x="681" />
<glyph unicode="!" horiz-adv-x="620" d="M186 1552h248l-45 -1165h-153zM217 0v186h189v-186h-189z" />
<glyph unicode="&#x22;" horiz-adv-x="1024" d="M186 1614h217l-41 -621h-126zM625 1614h213l-43 -621h-127z" />
<glyph unicode="#" d="M61 412v139h228l110 426h-338v139h379l117 436h145l-114 -436h377l116 436h150l-121 -436h193v-139h-234l-113 -426h347v-139h-381l-111 -412h-149l112 412h-375l-110 -412h-148l109 412h-189zM438 551h375l117 426h-379z" />
<glyph unicode="$" d="M152 385v10h200v-10q0 -88 54 -147q51 -55 223 -78v538l-64 25q-211 84 -286 182q-74 94 -74 230q0 109 45 192q47 88 135 146q86 57 244 75v158h153v-158q221 -14 299 -106q78 -90 78 -191v-10h-201v10q0 51 -45 90q-39 33 -131 50v-547l86 -31q100 -39 183 -94 q84 -55 114 -129q33 -78 33 -152q0 -94 -47 -192.5t-129 -159.5q-86 -65 -240 -86v-156h-153v156q-274 14 -377 131q-100 113 -100 254zM399 1139q0 -72 41 -123t150 -101l39 -14v492q-125 -23 -176 -93q-54 -71 -54 -161zM782 166q92 12 133 45q45 35 66 88q23 57 23 113 q0 76 -39 123q-43 51 -134 90l-49 16v-475z" />
<glyph unicode="%" horiz-adv-x="1853" d="M61 1085q0 215 101 340q102 127 250 127q145 0 247 -127q100 -125 101 -340q0 -213 -101 -337q-102 -127 -247 -127q-147 0 -250 127q-101 124 -101 337zM233 1085q0 -145 48 -233q49 -92 131 -92q80 0 129 92t49 233t-49 233.5t-131 92.5q-80 0 -129 -92 q-48 -89 -48 -234zM274 0l1104 1552h176l-1085 -1552h-195zM1094 465q0 215 100 340q102 127 250 127q145 0 248 -127q100 -125 100 -340t-100.5 -340t-247.5 -125q-150 0 -250 125t-100 340zM1264 465q0 -141 49 -233.5t131 -92.5q80 0 129 92.5t49 233.5t-49 233.5 t-129 92.5q-82 0 -131 -92.5t-49 -233.5z" />
<glyph unicode="&#x26;" horiz-adv-x="1488" d="M78 428q0 158 104.5 299t268.5 225q-6 10 -10.5 16.5t-6.5 10.5q-70 111 -86 149q-20 45 -29 82q-8 33 -8 70q0 84 47 158q51 80 131 118q86 41 187 41q152 0 237 -79q88 -82 88 -187q0 -121 -86 -237.5t-217 -192.5q174 -299 342 -510q49 70 76 166q25 89 25 264v56h186 v-23q0 -354 -186 -590q72 -92 248 -264h-271q-25 25 -74 82l-36 45q-106 -92 -201 -133q-96 -41 -223 -41q-150 0 -265 63q-111 61 -176 174t-65 238zM272 434q0 -90 43 -164q45 -76 127 -118q83 -43 160 -43q53 0 127 22q68 20 182 119q-61 74 -180 246q-117 166 -201 323 q-123 -63 -190 -170q-68 -104 -68 -215zM510 1294q0 -29 8 -59q4 -16 23 -61q14 -37 57 -103l20 -29q104 57 158 138q53 78 53 135q0 35 -20 67q-23 35 -61 52q-43 18 -80 18q-80 0 -119 -51.5t-39 -106.5z" />
<glyph unicode="'" horiz-adv-x="620" d="M170 1614h281l-72 -621h-133z" />
<glyph unicode="(" horiz-adv-x="913" d="M178 637q0 178 49 362q49 182 160 359q104 166 242 287h153q-170 -180 -250 -332q-77 -147 -116 -326q-39 -174 -39 -350q0 -178 39 -352q40 -178 116 -326q80 -152 250 -332h-153q-131 113 -242 287q-111 176 -160 358q-49 185 -49 365z" />
<glyph unicode=")" horiz-adv-x="913" d="M131 -373q175 184 252 332q74 141 115 326q41 182 41 352q0 168 -41 350q-41 180 -115 326q-74 143 -252 332h156q137 -121 241 -287q111 -176 160 -359q49 -184 49 -362q0 -180 -49 -365q-49 -182 -160 -358q-111 -174 -241 -287h-156z" />
<glyph unicode="*" horiz-adv-x="1038" d="M78 1206l41 148l340 -103l-19 346h158l-18 -346l340 103l41 -148l-338 -67l200 -310l-127 -84l-178 316l-176 -316l-129 84l203 310z" />
<glyph unicode="+" d="M125 481v156h479v479h156v-479h481v-156h-481v-481h-156v481h-479z" />
<glyph unicode="," horiz-adv-x="620" d="M178 0v264h264v-164q0 -145 -28.5 -225t-85.5 -143q-59 -66 -150 -105v121q49 28 74 68q27 43 39 86t12 98h-125z" />
<glyph unicode="-" horiz-adv-x="774" d="M78 551v156h620v-156h-620z" />
<glyph unicode="." horiz-adv-x="620" d="M178 0v264h264v-264h-264z" />
<glyph unicode="/" horiz-adv-x="1101" d="M47 -47l834 1644h174l-830 -1644h-178z" />
<glyph unicode="0" d="M117 776q0 381 155 600q158 221 410 221t410 -221q158 -223 157 -600q0 -379 -157 -602q-158 -221 -410 -221t-410 221q-155 219 -155 602zM309 776q0 -264 88 -465q90 -203 285 -202.5t285 202.5q88 201 88 465q0 262 -88 463q-90 205 -285 205t-285 -205 q-88 -201 -88 -463z" />
<glyph unicode="1" d="M303 1235v172l313 145h187v-1552h-187v1360z" />
<glyph unicode="2" d="M178 0v162q0 125 78 274q76 145 262 289l105 82q213 166 268 242q55 80 55 168t-75.5 157.5t-215.5 69.5q-127 0 -190 -51q-61 -49 -62 -111v-10h-186v10q0 82 55.5 155.5t149.5 116.5q95 43 240 43q264 0 374 -110q113 -113 113 -268q0 -76 -37 -166 q-35 -86 -137.5 -176.5t-167.5 -137.5l-78 -51q-356 -244 -356 -479v-39h807v-170h-1002z" />
<glyph unicode="3" d="M170 276v11h186v-11q0 -82 80 -124.5t201 -42.5q96 0 170 36q76 37 111 115q37 80 36 174q0 145 -114 244q-114 98 -351 98h-94v156h117q135 0 213 43t123 106.5t45 145.5q0 98 -76 157.5t-194 59.5q-70 0 -131 -19q-59 -18 -95 -61q-33 -41 -32 -90v-10h-179v10 q0 123 105 223q102 100 342 100q229 0 340 -96q115 -98 114 -250q0 -86 -32 -157q-31 -68 -99 -129q-63 -57 -186 -93q193 -55 285 -159q94 -106 94 -267q0 -184 -133 -340q-131 -154 -398 -153q-229 0 -339 100q-109 98 -109 223z" />
<glyph unicode="4" d="M109 473v156l745 923h186v-923h217v-156h-217v-473h-186v473h-745zM313 629h541v678z" />
<glyph unicode="5" d="M203 262v10h184v-10q0 -68 72 -110q70 -43 192 -43q164 0 242 104q78 106 78 238q0 147 -105 247q-102 100 -422 101h-141v753h799v-172h-629v-417h47q240 0 375 -60q131 -57 201 -168q68 -109 67 -260q0 -205 -125 -362q-125 -160 -385 -160q-203 0 -327 90 q-123 88 -123 219z" />
<glyph unicode="6" d="M178 766q0 381 155.5 606t446.5 225q199 0 299.5 -86t100.5 -198v-10h-187v10q0 49 -53 90t-158 41q-121 0 -215 -76q-96 -78 -147 -242q-53 -172 -53 -348l2 -53q63 84 133 133q55 39 133 66q68 23 141 22q201 0 322 -143.5t121 -343.5q0 -137 -64 -258 q-61 -117 -174 -182.5t-244 -65.5q-150 0 -286 90q-135 88 -203 272q-70 187 -70 451zM418 451q0 -90 43 -175q43 -82 116.5 -124.5t159.5 -42.5q121 0 205 102q82 100 82 254q0 150 -86 238t-211 88q-137 0 -223 -101t-86 -239z" />
<glyph unicode="7" d="M156 1380v172h1046v-172q-18 -29 -26 -37l-144 -192q-135 -181 -276 -442q-143 -264 -170 -398q-29 -139 -29 -233v-78h-201v68q0 160 47 329q45 162 244 457l332 479l35 47h-858z" />
<glyph unicode="8" d="M152 424q0 129 73.5 245.5t227.5 186.5q-117 57 -181 145q-59 84 -59 197q0 111 59 207q57 92 174 143q115 49 236 49q125 0 237.5 -49t172 -145t59.5 -205q0 -113 -59 -197q-63 -88 -181 -145q154 -70 228 -186q76 -121 75 -246q0 -119 -65 -238q-63 -115 -180 -174 q-115 -59 -287 -59t-286.5 59.5t-178.5 173.5q-65 119 -65 238zM344 434q0 -80 45 -164q43 -82 123 -120q82 -41 170 -41t170 40.5t125 120.5t43 164q0 88 -45 170q-47 86 -125 127q-84 45 -168 45q-82 0 -166 -45q-78 -41 -125 -127q-47 -84 -47 -170zM408 1190 q0 -104 77 -182q76 -76 197 -76q123 0 199 76q78 78 77 182q0 111 -83.5 182.5t-192.5 71.5q-106 0 -190 -71.5t-84 -182.5z" />
<glyph unicode="9" d="M147 1094q0 141 62 258q59 113 174 180q113 66 244 65q152 0 288 -90q135 -88 203 -272q70 -186 70 -449q0 -379 -158 -608q-156 -225 -446 -225q-193 0 -297 88q-100 86 -101 197v10h187v-10q0 -45 51 -88q49 -41 158 -41q123 0 215 73.5t147 241.5q53 162 53 348v55 q-70 -90 -135 -133q-76 -49 -133 -67q-68 -23 -141 -23q-203 0 -322 143.5t-119 346.5zM342 1087q0 -151 86 -239t211 -88q135 0 221 100q86 102 86 242q0 90 -43 174t-115 125q-74 43 -161 43q-119 0 -203 -103q-82 -100 -82 -254z" />
<glyph unicode=":" horiz-adv-x="620" d="M178 0v264h264v-264h-264zM178 854v262h264v-262h-264z" />
<glyph unicode=";" horiz-adv-x="620" d="M178 0v264h264v-164q0 -145 -28.5 -225t-85.5 -143q-59 -66 -150 -105v121q49 28 74 68q27 43 39 86t12 98h-125zM178 854v262h264v-262h-264z" />
<glyph unicode="&#x3c;" d="M125 555l1116 561v-172l-770 -389l770 -383v-172z" />
<glyph unicode="=" d="M125 309v156h1116v-156h-1116zM125 651v156h1116v-156h-1116z" />
<glyph unicode="&#x3e;" d="M125 0v178l770 389l-770 381v168l1116 -549z" />
<glyph unicode="?" horiz-adv-x="1163" d="M125 1288v10q0 72 51 144q49 70 152 114q94 41 211 41q123 0 225 -45t158 -125q57 -82 57 -165q0 -37 -25 -121q-20 -70 -137 -180l-69 -66q-74 -72 -115 -137q-43 -70 -43 -226v-137h-187v94q0 164 51.5 266.5t110.5 168.5l78 84q76 82 108.5 137t32.5 100q0 86 -77 141 q-80 57 -189 58q-94 0 -147.5 -35t-53.5 -111v-10h-192zM403 0v186h187v-186h-187z" />
<glyph unicode="@" horiz-adv-x="1783" d="M125 776q0 229 94 419.5t273 297.5q176 104 426 104q233 0 395 -92t256 -254q92 -160 92 -354q0 -145 -51 -250q-51 -106 -142 -168q-86 -59 -194 -59q-92 0 -164 45q-74 45 -88 151q-55 -84 -127 -133q-71 -49 -141 -49t-142 45q-66 41 -100.5 121t-34.5 166 q0 117 60 231q57 111 155.5 162t288.5 51h195v-434q0 -137 38 -186q37 -47 97 -47q88 0 155 90q68 88 68 246q0 172 -82 311q-80 135 -225 209q-147 76 -316 76q-182 0 -338 -84q-152 -82 -233 -248q-80 -164 -80 -355q0 -188 76 -360q78 -178 235 -262q164 -88 316 -88 q184 0 375 125v-158q-178 -92 -373 -92q-213 0 -395 104q-180 104 -274.5 299t-94.5 420zM647 766q0 -94 39 -137q37 -39 82 -39q53 0 106 39q57 41 148 174v282h-64q-92 0 -124 -10q-41 -12 -74 -39q-61 -49 -86 -114q-27 -74 -27 -156z" />
<glyph unicode="A" horiz-adv-x="1488" d="M31 0l637 1552h202l588 -1552h-219l-160 426h-686l-176 -426h-186zM455 582h565l-272 721z" />
<glyph unicode="B" horiz-adv-x="1302" d="M147 0v1552h412q281 0 379 -41t145 -118q49 -80 50 -176q0 -104 -64 -213q-63 -106 -223 -189q184 -47 266 -151q82 -106 82 -240q0 -113 -57 -209q-57 -98 -162 -156q-106 -59 -363 -59h-465zM348 156h287q203 0 276.5 75.5t73.5 178.5q0 84 -47 151q-51 74 -143 115 q-100 45 -295 45h-152v-565zM348 877h195q150 0 225.5 40.5t118.5 114.5q45 78 45 154q0 86 -70 147q-74 63 -252 64h-262v-520z" />
<glyph unicode="C" horiz-adv-x="1333" d="M92 776.5q0 409.5 188.5 616t485.5 206.5q143 0 256 -45q104 -41 172 -141q63 -94 63 -184v-10h-188v10q0 59 -35 108q-37 53 -102.5 80t-159.5 27q-238 0 -354 -189q-117 -187 -117 -479q0 -291 119 -481q117 -186 352 -186q164 0 229 65q68 68 68 150v10h188v-10 q0 -92 -63 -187q-66 -96 -172 -139q-113 -45 -256 -45q-297 0 -485.5 207t-188.5 616.5z" />
<glyph unicode="D" horiz-adv-x="1433" d="M147 0v1552h428q313 0 459 -86q143 -86 225 -258t82 -426q0 -236 -73 -407q-76 -176 -221 -275q-150 -100 -443 -100h-457zM348 170h240q211 0 321 63q106 59 166 197q57 129 58 336q0 199 -53.5 346.5t-159.5 214.5q-111 70 -338 70h-234v-1227z" />
<glyph unicode="E" horiz-adv-x="1177" d="M147 0v1552h877v-172h-676v-487h590v-156h-590v-567h729v-170h-930z" />
<glyph unicode="F" horiz-adv-x="1132" d="M147 0v1552h877v-172h-676v-534h590v-156h-590v-690h-201z" />
<glyph unicode="G" horiz-adv-x="1380" d="M92 758q0 311 82 477q84 172 229 266q150 96 353 96q138 0 252 -43q115 -43 182 -133q68 -89 67 -178v-10h-188v10q0 57 -41 100q-45 47 -108 74q-66 27 -154 27q-225 0 -344 -178q-121 -180 -121 -487.5t123 -489.5q123 -180 344 -180q129 0 301 61v442h-348v156h536 v-696q-250 -119 -471 -119q-233 0 -376 92q-147 94 -232 266q-86 177 -86 447z" />
<glyph unicode="H" horiz-adv-x="1411" d="M147 0v1552h201v-692h715v692h201v-1552h-201v707h-715v-707h-201z" />
<glyph unicode="I" horiz-adv-x="495" d="M147 0v1552h201v-1552h-201z" />
<glyph unicode="J" horiz-adv-x="1007" d="M39 254v10h203v-10q0 -43 22 -78q18 -29 72 -49q49 -18 106 -18q63 0 116.5 28.5t78.5 87.5q23 53 22 262v1065h201v-1069q0 -260 -53 -348q-57 -94 -135 -137q-84 -45 -217 -45q-227 0 -321.5 94t-94.5 207z" />
<glyph unicode="K" horiz-adv-x="1357" d="M147 0v1552h201v-741l649 741h230l-641 -729l739 -823h-252l-725 811v-811h-201z" />
<glyph unicode="L" horiz-adv-x="1193" d="M147 0v1552h201v-1382h815v-170h-1016z" />
<glyph unicode="M" horiz-adv-x="1613" d="M147 0v1552h197l483 -1110l443 1110h196v-1552h-180v926l6 276h-6l-98 -278l-277 -691h-202l-299 695l-93 252h-4l4 -252v-928h-170z" />
<glyph unicode="N" horiz-adv-x="1449" d="M147 0v1552h199l711 -1103l63 -123l-4 123v1103h187v-1552h-197l-713 1108l-63 125l4 -125v-1108h-187z" />
<glyph unicode="O" horiz-adv-x="1503" d="M92 776q0 396 184 608q184 213 475 213t476 -213q184 -212 184 -608q0 -393 -184.5 -608t-475 -215t-475 215t-184.5 608zM301 776q0 -303 121 -485t330 -182q211 0 331 182q119 180 119 485q0 301 -119 484q-120 184 -331 184t-330 -184q-121 -187 -121 -484z" />
<glyph unicode="P" horiz-adv-x="1193" d="M147 0v1552h433q242 0 348 -51q101 -49 153 -147q51 -96 52 -228q0 -215 -149.5 -364.5t-442.5 -149.5h-193v-612h-201zM348 768h137q268 0 353 102q86 104 86 248q0 121 -70 201q-68 78 -270 78h-236v-629z" />
<glyph unicode="Q" horiz-adv-x="1503" d="M92 774q0 397 184.5 610t477.5 213q291 0 475 -213q182 -209 182 -608q0 -199 -43 -348q-43 -154 -143 -268q-102 -117 -279 -178q102 -90 215 -134q119 -45 244 -45q94 0 192 35v-178q-102 -33 -198 -33q-150 0 -291 57.5t-354 264.5q-258 23 -383 121 q-129 102 -203 272q-76 176 -76 432zM301 776q0 -303 121 -485t332 -182q209 0 329 182q119 180 119 485q0 301 -119 484q-121 184 -329 184q-212 0 -332 -184q-121 -187 -121 -484z" />
<glyph unicode="R" horiz-adv-x="1239" d="M147 0v1552h480q178 0 266 -51q89 -52 141 -147q51 -94 51 -209q0 -90 -34 -176q-33 -82 -99 -150q-66 -70 -196 -121q51 -29 75 -53q20 -20 62 -82l61 -104l248 -459h-231l-215 408q-78 152 -203 260h-205v-668h-201zM348 821h199q125 0 188 39q68 41 103 113 q39 78 39 157q0 70 -31 129.5t-88.5 98.5t-196.5 39h-213v-576z" />
<glyph unicode="S" horiz-adv-x="1239" d="M109 340v8h202v-8q0 -133 90 -180q96 -51 242 -51q133 0 223 77q88 76 88 203q0 102 -75.5 165.5t-235.5 129.5l-80 33q-160 66 -246 135q-83 68 -122 147q-39 78 -39 181q0 180 123 297q127 121 391 120q242 0 342 -90q98 -89 98 -209v-10h-203v10q0 37 -30 74 q-35 41 -91 55q-66 16 -135 17q-147 0 -219 -76t-72 -170q0 -66 33 -119q35 -57 94 -94q55 -35 201 -98l94 -41q225 -98 305 -209q76 -106 76 -236q0 -115 -61.5 -225t-171.5 -166q-115 -57 -293 -57q-180 0 -291 41q-115 43 -176 137q-61 95 -61 209z" />
<glyph unicode="T" horiz-adv-x="1310" d="M31 1397v155h1249v-155h-520v-1397h-201v1397h-528z" />
<glyph unicode="U" d="M125 526v1026h201v-997q0 -219 43 -293t133 -115q86 -39 200 -38q109 0 189 38q84 41 123 125q41 88 41 353v927h186v-979q0 -268 -63 -383q-59 -106 -181 -174q-115 -63 -297 -63q-168 0 -303 51q-139 53 -204 158q-68 108 -68 364z" />
<glyph unicode="V" horiz-adv-x="1488" d="M31 1552h221l491 -1300l527 1300h188l-633 -1552h-202z" />
<glyph unicode="W" horiz-adv-x="1937" d="M78 1552h192l248 -1093l35 -187h8l35 187l283 1093h200l277 -1095l33 -185h8l33 185l256 1095h176l-361 -1552h-205l-286 1112l-37 191h-10l-35 -191l-293 -1112h-205z" />
<glyph unicode="X" horiz-adv-x="1247" d="M31 0l497 788l-458 764h221l350 -585l375 585h201l-478 -747l480 -805h-218l-374 625l-391 -625h-205z" />
<glyph unicode="Y" horiz-adv-x="1247" d="M23 1552h235l387 -626l383 626h197l-498 -821v-731h-201v731z" />
<glyph unicode="Z" horiz-adv-x="1177" d="M78 0v186l772 1194h-719v172h940v-172l-768 -1194h782v-186h-1007z" />
<glyph unicode="[" horiz-adv-x="913" d="M233 -373v2018h504v-156h-334v-1706h334v-156h-504z" />
<glyph unicode="\" horiz-adv-x="1101" d="M47 1597h178l830 -1644h-174z" />
<glyph unicode="]" horiz-adv-x="913" d="M178 -217h334v1706h-334v156h504v-2018h-504v156z" />
<glyph unicode="^" d="M125 434l557 1118l559 -1118h-172l-387 776l-387 -776h-170z" />
<glyph unicode="_" d="M61 0h1242v-156h-1242v156z" />
<glyph unicode="`" horiz-adv-x="1208" d="M309 1614h217l295 -326h-170z" />
<glyph unicode="a" horiz-adv-x="1132" d="M109 274q0 160 135 250t463 154l100 18v125q0 100 -70 146q-63 41 -166 41q-117 0 -180 -52q-66 -53 -65 -118v-17h-201v17q0 72 61 151q63 82 166 121t228 39q115 0 221 -39q98 -35 145 -102q47 -66 47 -242v-434q0 -43 4 -150q2 -74 35 -182h-196q-29 92 -29 156 q-123 -120 -209 -154q-84 -33 -166 -33q-133 0 -227 82q-96 84 -96 223zM309 270q0 -45 25 -82q27 -39 69.5 -59t90.5 -20q78 0 153.5 45t118.5 122q41 74 41 177v110l-55 -12q-279 -68 -363 -131q-80 -62 -80 -150z" />
<glyph unicode="b" horiz-adv-x="1247" d="M131 0q8 70 10 133q0 23 1 67t3 62q2 33 2 68v1284h187v-690q59 92 114.5 137t116.5 65q68 23 133 23q127 0 234 -70q108 -71 166 -209q57 -135 57 -309q0 -255 -123 -424q-123 -168 -342 -168q-74 0 -135 21q-63 20 -113 61q-51 43 -108 144l-6 -80q-2 -57 -11 -115 h-186zM334 557q0 -190 82 -311t229 -121q139 0 227 106q90 109 91 324q0 250 -92.5 348t-219.5 98q-88 0 -166 -53q-76 -51 -114 -160q-37 -104 -37 -231z" />
<glyph unicode="c" horiz-adv-x="1116" d="M92 559q0 272 135 432q133 158 379 158q127 0 221 -41q92 -40 148 -111q57 -74 57 -157v-11h-186v11q2 57 -55 106q-57 47 -175 47q-139 0 -233 -102q-96 -106 -96 -331.5t96 -332.5q94 -102 233 -102q121 0 175 45q55 47 55 106v11h186v-11q0 -70 -57 -149 q-55 -77 -148 -117q-94 -41 -221 -41q-248 0 -379 156q-135 160 -135 434z" />
<glyph unicode="d" horiz-adv-x="1232" d="M92 555q0 255 123 424q123 170 344 170q74 0 135 -21q63 -20 112.5 -61t108.5 -145v692h187v-1614h-187v195q-61 -113 -110 -152q-53 -41 -123 -57q-72 -16 -133 -17q-125 0 -232 70q-109 72 -165 207q-60 141 -60 309zM287 561q0 -248 88 -348q84 -96 223 -96 q92 0 166 53q76 55 113 160q39 111 38 229q0 190 -81 311q-84 123 -232 123q-135 0 -225 -108.5t-90 -323.5z" />
<glyph unicode="e" horiz-adv-x="1177" d="M92 551q0 260 148 428q147 170 376 170q127 0 232 -55q98 -53 162 -172q59 -113 59 -324v-63h-793q0 -176 97 -295q94 -115 268 -115q123 0 180 47q55 46 56 104v11h186v-11q0 -72 -59 -149q-61 -80 -156 -119q-96 -39 -223 -39q-256 0 -394 164q-139 168 -139 418z M289 676h604v20q0 74 -39 152q-37 74 -102 110q-61 35 -154 35q-102 0 -192 -84q-89 -82 -117 -233z" />
<glyph unicode="f" horiz-adv-x="798" d="M86 963v153h162v53q0 242 102 344q100 100 268 101q68 0 156 -15v-151q-86 10 -125 10q-84 0 -151 -45q-63 -43 -64 -209v-88h326v-153h-326v-963h-186v963h-162z" />
<glyph unicode="g" horiz-adv-x="1247" d="M92 567q0 166 60 307q57 137 161 205q109 70 246 70q104 0 189 -43q88 -45 167 -168v178h187v-911q0 -340 -74 -455q-72 -111 -182 -164q-113 -53 -258 -53q-135 0 -248 41q-106 39 -168 113q-55 68 -55 149v17h184v-17q0 -72 82 -117q84 -45 203 -45q96 0 170 35 q76 35 116 111q43 78 43 282v134q-61 -121 -147 -177q-94 -59 -217 -59q-199 0 -328 156q-131 159 -131 411zM287 565q0 -127 37 -223q37 -98 112 -145q76 -49 162 -50q143 0 229 125q88 129 88 320q0 180 -92 290.5t-221 110.5q-135 0 -225 -112.5t-90 -315.5z" />
<glyph unicode="h" horiz-adv-x="1193" d="M147 0v1614h187v-690q57 90 115 135q63 49 114 67q63 23 135 23q104 0 189 -43q82 -43 129 -127t47 -268v-711h-186v631q0 154 -21 213q-23 61 -76 98q-51 35 -129 35q-86 0 -155 -47q-78 -51 -119 -135q-43 -86 -43 -246v-549h-187z" />
<glyph unicode="i" horiz-adv-x="479" d="M147 0v1116h187v-1116h-187zM147 1366v186h187v-186h-187z" />
<glyph unicode="j" horiz-adv-x="565" d="M-117 -268l41 -4q55 -6 88 -7q94 0 153.5 47.5t59.5 231.5v1116h187v-1116q0 -166 -41 -252q-41 -84 -129 -133q-90 -49 -197 -49q-86 0 -162 16v150zM225 1372v180h187v-180h-187z" />
<glyph unicode="k" horiz-adv-x="1101" d="M147 0v1614h195v-1028l496 530h215l-486 -518l502 -598h-231l-496 586v-586h-195z" />
<glyph unicode="l" horiz-adv-x="479" d="M147 0v1614h187v-1614h-187z" />
<glyph unicode="m" horiz-adv-x="1830" d="M147 0v1116h187v-201q61 106 108 146q55 45 113 65q63 23 129 23q63 0 131 -23q66 -23 111 -63q43 -39 90 -148q55 94 112 142q59 49 115 69q61 23 123 23q92 0 172 -45q74 -41 119 -127q43 -84 43 -279v-698h-189v621q0 203 -22 249q-25 53 -66 80t-100 27 q-84 0 -154 -51q-66 -47 -110 -140q-43 -86 -43 -243v-543h-187v621q0 201 -20 249q-20 51 -70 80q-47 29 -100 29q-72 0 -150 -55q-70 -49 -114 -142q-41 -84 -41 -239v-543h-187z" />
<glyph unicode="n" horiz-adv-x="1193" d="M147 0v1116h187v-192q57 90 115 135q63 49 114 67q63 23 135 23q104 0 189 -43q82 -43 129 -127t47 -268v-711h-186v631q0 154 -21 213q-23 63 -78 98t-127 35q-86 0 -155 -47q-78 -51 -119 -135q-43 -86 -43 -246v-549h-187z" />
<glyph unicode="o" horiz-adv-x="1239" d="M92 559q0 291 155.5 440.5t373 149.5t373 -149.5t155.5 -440.5q0 -293 -156 -442q-154 -147 -373 -147.5t-372 147.5q-156 149 -156 442zM287 559.5q0 -194.5 92 -315.5q92 -119 241.5 -119t241.5 119q92 121 92 315.5t-92 314.5q-92 119 -241.5 119t-241.5 -119 q-92 -120 -92 -314.5z" />
<glyph unicode="p" horiz-adv-x="1232" d="M131 -434v1550h186v-192q59 100 111 139q55 43 119 63q68 23 135 23q129 0 236 -70q104 -70 163 -209q59 -141 60 -309q0 -255 -123 -424q-123 -168 -344 -168q-74 0 -135 21q-63 20 -113 61q-47 37 -109 144v-629h-186zM317 557q0 -190 82 -311t232 -121q137 0 225 106 q90 109 90 324q0 252 -94 348q-94 98 -217 98q-86 0 -164 -53q-76 -51 -115 -160q-39 -110 -39 -231z" />
<glyph unicode="q" horiz-adv-x="1232" d="M92 555q0 255 123 424q123 170 344 170q74 0 135 -21q63 -20 112.5 -61t108.5 -145v194h187v-1550h-187v629q-61 -104 -110 -142q-53 -41 -119 -61q-72 -23 -135 -23q-127 0 -234 70q-109 72 -165 207q-60 141 -60 309zM287 561q0 -248 96 -348q94 -96 215 -96 q92 0 166 53q76 55 113 160q39 111 38 229q0 190 -81 311q-84 123 -232 123q-135 0 -225 -108.5t-90 -323.5z" />
<glyph unicode="r" horiz-adv-x="790" d="M147 0v1116h187v-196q47 90 100 133q59 49 115 71q61 25 127 25q55 0 98 -19v-192q-70 33 -139 33q-104 0 -202.5 -92.5t-98.5 -325.5v-553h-187z" />
<glyph unicode="s" horiz-adv-x="1042" d="M78 291v4h186v-4q0 -74 55 -119q57 -47 187 -47q117 0 186 55q72 55 72 131q0 104 -141 148l-95 28l-63 21l-129 39q-221 80 -221 268q0 133 106.5 233.5t319.5 100.5q205 0 295 -86q88 -86 88 -191v-4h-187v4q0 55 -57 89q-59 33 -150 32q-113 0 -172 -47t-59 -115 q0 -51 39 -83q43 -37 129 -60l90 -24l66 -19q133 -39 168 -55q31 -14 67 -41q51 -41 70 -86q23 -55 22 -121q0 -158 -112 -264q-115 -109 -332 -109q-135 0 -230 41q-90 39 -145 113q-53 72 -53 168z" />
<glyph unicode="t" horiz-adv-x="907" d="M70 963v153h194v264h187v-264h325v-153h-325v-523q0 -143 22 -204q20 -55 72 -84q47 -27 119 -27q59 0 165 33v-156q-131 -33 -206 -33q-109 0 -189 41q-84 43 -127 123t-43 254v576h-194z" />
<glyph unicode="u" horiz-adv-x="1193" d="M131 410v706h186v-629q0 -244 66 -297q63 -51 162 -51q82 0 155.5 49.5t116.5 135.5t43 243v549h187v-1116h-187v195q-59 -90 -112 -136q-55 -45 -115 -67q-61 -23 -129 -23q-154 0 -264 88q-109 87 -109 353z" />
<glyph unicode="v" horiz-adv-x="1155" d="M23 1116h200l359 -874l364 874h187l-469 -1116h-187z" />
<glyph unicode="w" horiz-adv-x="1597" d="M31 1116h194l199 -694l25 -166h20l31 166l198 694h187l223 -692l37 -168h20l29 168l197 692h176l-320 -1116h-186l-232 729l-30 164h-17l-32 -164l-211 -729h-189z" />
<glyph unicode="x" horiz-adv-x="1085" d="M53 0l389 565l-364 551h213l260 -391l268 391h193l-365 -532l383 -584h-215l-278 424l-289 -424h-195z" />
<glyph unicode="y" horiz-adv-x="1169" d="M31 1116h207l372 -829l351 829h188l-471 -1116q-95 -227 -160 -301q-61 -70 -135 -102q-71 -31 -190 -31h-142v155h107q80 0 135 21q57 20 96 65.5t103 196.5l20 43z" />
<glyph unicode="z" horiz-adv-x="1132" d="M117 0v156l661 807h-647v153h868v-153l-651 -807h676v-156h-907z" />
<glyph unicode="{" horiz-adv-x="921" d="M209 559v156h53q98 0 131 51t33 119q0 76 -23 172l-22 102q-25 101 -25 191q0 135 94.5 215t225.5 80h14v-156h-18q-57 0 -101 -43q-45 -45 -45 -131q0 -29 6 -51l11 -50l22 -118q25 -135 25 -183q0 -80 -49 -159q-47 -76 -160 -117q111 -41 160 -119q49 -80 49 -160 q0 -47 -25 -182l-22 -119l-11 -49q-6 -25 -6 -51q0 -84 45 -129t101 -45h18v-156h-14q-127 0 -225 82q-94 80 -95 213q0 89 25 191l22 102q23 96 23 174q0 68 -33 119t-131 51h-53z" />
<glyph unicode="|" horiz-adv-x="503" d="M170 -47v1644h164v-1644h-164z" />
<glyph unicode="}" horiz-adv-x="921" d="M233 -217h19q55 0 100 45q43 43 43 131q0 35 -4 49l-10 49l-23 119q-25 135 -24 182q0 80 49 160q49 78 160 119q-113 41 -160 117q-49 80 -49 159q0 47 24 183l23 118l10 50q4 16 4 51q0 86 -43 129q-45 45 -100 45h-19v156h15q129 0 225 -80q94 -80 94 -215 q0 -89 -24 -191l-25 -102q-20 -88 -20 -172q0 -68 32.5 -119t131.5 -51h53v-156h-53q-98 0 -131 -51t-33 -121q0 -84 20 -172l25 -102q25 -101 24 -191q0 -133 -94 -213q-98 -82 -225 -82h-15v156z" />
<glyph unicode="~" d="M125 403v19q0 133 76 227q78 96 209 96q35 0 65 -6q27 -6 72 -22q37 -14 119 -62l120 -65q111 -61 182.5 -61.5t108.5 53.5q35 49 35 116v17h129v-17q0 -168 -94 -247q-92 -78 -201 -78q-98 0 -262 92l-102 59q-119 66 -187 66q-43 0 -76 -21q-34 -22 -55 -67 q-20 -43 -20 -80v-19h-119z" />
<glyph unicode="&#xa0;" />
<glyph unicode="&#xa1;" horiz-adv-x="620" d="M186 -434l45 1163h154l49 -1163h-248zM215 932v184h186v-184h-186z" />
<glyph unicode="&#xa2;" d="M190 774q0 147 43 270q43 121 138 209q92 86 245 111v188h156v-188q147 -23 209 -61q68 -43 109 -109q39 -63 38 -129v-10h-186v10q0 106 -170 141v-864q92 18 131 66q39 49 39 86v10h186v-10q0 -88 -81.5 -182.5t-274.5 -123.5v-188h-156v188q-162 31 -247 107 q-80 72 -131 199q-48 116 -48 280zM385 774q0 -119 23 -194q23 -74 73 -140q47 -59 135 -90v854q-88 -29 -137 -88q-45 -53 -69 -141q-25 -86 -25 -201z" />
<glyph unicode="&#xa3;" d="M164 0v170q135 68 184 172q49 102 80 276l29 150h-209v156h241l48 237q35 178 81 258q51 86 127 131q78 47 185 47q49 0 90 -8q49 -10 129 -51v-158q-117 47 -199 47q-66 0 -110 -28q-41 -27 -68 -94q-31 -78 -57 -213l-35 -168h330v-156h-361l-26 -133q-14 -76 -52 -193 q-27 -86 -65 -149q-34 -55 -111 -123h754v-170h-985z" />
<glyph unicode="&#xa4;" d="M86 281l184 184q-70 115 -84 172q-16 70 -16 131q0 59 16 129q14 59 84 174l-184 184l109 111l186 -186q111 70 168 84q66 16 133 16q70 0 135 -16q57 -14 168 -84l186 186l109 -111l-184 -184q70 -115 84 -174t14 -129q0 -72 -14 -131q-14 -57 -84 -172l184 -184 l-109 -111l-186 184q-113 -70 -172 -84q-57 -14 -131 -14q-72 0 -129 14q-59 14 -172 84l-186 -184zM326 768q0 -147 104.5 -251.5t251.5 -104.5q150 0 254 104.5t104 251.5q0 94 -47 178q-45 80 -133 131q-82 47 -178 47q-94 0 -176 -47q-88 -51 -133 -131 q-47 -84 -47 -178z" />
<glyph unicode="&#xa5;" d="M74 1552h209l428 -673l401 673h180l-489 -823h366v-147h-378v-187h378v-139h-378v-256h-187v256h-389v139h389v187h-389v147h377z" />
<glyph unicode="&#xa6;" horiz-adv-x="503" d="M170 -47v729h164v-729h-164zM170 868v729h164v-729h-164z" />
<glyph unicode="&#xa7;" d="M135 12v11h203v-11q0 -74 37 -125q37 -53 121 -77q90 -27 182 -27q158 0 233.5 67.5t75.5 143.5q0 35 -14.5 63.5t-46.5 55.5q-61 49 -252 141l-215 104q-157 74 -209 154q-51 78 -51 162q0 76 43 153q41 74 110 123q-77 58 -116 129q-37 66 -37 150q0 162 133 264 q135 104 377 104q240 0 335 -88q100 -90 101 -211v-10h-203v10q0 72 -73.5 109t-188.5 37q-123 0 -207 -51q-82 -51 -82 -140q0 -70 62 -125q57 -53 192 -118l184 -86q190 -90 269 -170q78 -82 78 -193q0 -150 -168 -280q111 -78 139 -140q29 -63 29 -135 q0 -108 -55.5 -190.5t-159.5 -134.5q-106 -53 -283 -54q-328 0 -436 121q-107 119 -107 264zM391 702q0 -53 35 -98q33 -41 174 -108l291 -142q90 72 90 158q0 61 -43 115q-45 55 -193 127l-264 127q-66 -55 -78 -101q-12 -43 -12 -78z" />
<glyph unicode="&#xa8;" horiz-adv-x="1208" d="M295 1288v187h186v-187h-186zM729 1288v187h186v-187h-186z" />
<glyph unicode="&#xa9;" horiz-adv-x="1798" d="M78 774q0 223 110 414q113 193 301 301q190 109 410 108q221 0 412 -108q193 -111 303 -301q109 -186 108 -414q0 -223 -112 -416q-111 -190 -305 -299q-188 -106 -406 -106q-215 0 -403 106q-190 109 -303 299q-115 195 -115 416zM203 774q0 -190 96 -354 q94 -162 256 -252t344 -90q184 0 346 90q156 88 256 252q96 160 96 354q0 187 -92 350q-92 164 -256 256q-166 94 -350 95q-182 0 -348 -95q-164 -92 -256 -256q-92 -163 -92 -350zM459 786q0 205 118.5 361t362.5 156q154 0 293 -50v-139q-137 66 -266 66 q-145 0 -241.5 -96.5t-96.5 -301.5q0 -207 96 -303q98 -98 256 -98q113 0 252 57v-139q-111 -51 -281 -51q-154 0 -260 63q-111 68 -172 195q-61 128 -61 280z" />
<glyph unicode="&#xaa;" horiz-adv-x="681" d="M61 1075q0 96 80 152q78 53 285 94l55 8v70q0 51 -32 76q-35 25 -103 24q-66 0 -100 -26q-37 -27 -37 -72v-10h-137v10q0 55 37 98q40 46 104 74q61 27 139 26q76 0 137 -24q63 -25 91 -64q29 -41 28 -145v-256q0 -119 29 -205h-137q-14 49 -19 82q-57 -53 -106 -76 q-55 -25 -111 -24q-82 0 -143 51q-60 49 -60 137zM199 1073q0 -45 34 -67q33 -20 68 -21q53 0 116.5 45t63.5 150v57l-24 -6q-164 -41 -211 -76t-47 -82z" />
<glyph unicode="&#xab;" horiz-adv-x="1093" d="M86 481v156l334 356h162l-306 -438l306 -430h-170zM518 481v156l336 356h162l-305 -438l305 -430h-170z" />
<glyph unicode="&#xac;" d="M125 481v156h1116v-481h-156v325h-960z" />
<glyph unicode="&#xad;" horiz-adv-x="774" d="M78 551v156h620v-156h-620z" />
<glyph unicode="&#xae;" horiz-adv-x="1798" d="M78 774q0 223 110 414q113 193 301 301q190 109 410 108q221 0 412 -108q193 -111 303 -301q109 -186 108 -414q0 -223 -112 -416q-111 -190 -305 -299q-188 -106 -406 -106q-215 0 -403 106q-190 109 -303 299q-115 195 -115 416zM203 774q0 -190 96 -354 q94 -162 256 -252t344 -90q184 0 346 90q156 88 256 252q96 160 96 354q0 187 -92 350q-92 164 -256 256q-166 94 -350 95q-182 0 -348 -95q-164 -92 -256 -256q-92 -163 -92 -350zM586 264v1016h321q117 0 180 -35q59 -33 94.5 -98.5t35.5 -138.5q0 -86 -50 -166 q-47 -78 -149 -121q49 -33 112 -146l168 -311h-182l-137 264l-35 64q-55 98 -80 98h-119v-426h-159zM745 813h111q111 0 154 57q43 58 43 129q0 45 -19 78q-20 39 -51 58q-35 23 -117 22h-121v-344z" />
<glyph unicode="&#xaf;" horiz-adv-x="1208" d="M326 1288v123h559v-123h-559z" />
<glyph unicode="&#xb0;" horiz-adv-x="696" d="M78 1325q0 113 80 192.5t192 79.5q111 0 191 -79.5t80 -192.5t-78 -190q-80 -80 -192.5 -80t-192.5 79.5t-80 190.5zM170 1325q0 -66 53 -123q51 -53 127 -53t127 53t51 123q0 74 -53 127t-125 53q-74 0 -127 -53t-53 -127z" />
<glyph unicode="&#xb1;" d="M125 0v156h1116v-156h-1116zM125 791v155h479v481h156v-481h481v-155h-481v-482h-156v482h-479z" />
<glyph unicode="&#xb2;" horiz-adv-x="821" d="M86 643v117q0 70 47 158q53 98 160 176l61 47l60 45q92 71 110 104t19 70q0 47 -41 80q-45 35 -119 35q-66 0 -100.5 -22.5t-34.5 -47.5v-25h-139v27q0 63 69.5 126.5t210.5 63.5q168 0 238 -69q72 -72 71 -164q0 -45 -22 -100q-20 -49 -86 -105q-72 -59 -107 -84 l-47 -28q-207 -139 -207 -265v-6h484v-133h-627z" />
<glyph unicode="&#xb3;" horiz-adv-x="821" d="M113 815v23h133v-23q0 -23 26 -47q25 -23 117 -23q102 0 143 56q39 53 39 117q0 72 -63 122q-66 53 -203 54h-59v125h71q76 0 121 22q43 22 68 55q27 37 26 70q0 40 -30 74q-31 35 -113 35q-74 0 -110 -27q-33 -25 -33 -51v-25h-125v25q0 51 39 98q37 47 106 76 q61 27 144 26q115 0 192.5 -55t77.5 -153q0 -57 -25 -109q-27 -55 -129 -113q127 -59 160 -118.5t33 -130.5q0 -117 -84 -207t-256 -90q-119 0 -192.5 55t-73.5 139z" />
<glyph unicode="&#xb4;" horiz-adv-x="1208" d="M309 1288l297 326h215l-342 -326h-170z" />
<glyph unicode="&#xb5;" horiz-adv-x="1208" d="M-51 -373l299 1489h184l-127 -635q-23 -119 -22 -170q0 -92 51 -131q53 -41 125 -41q86 0 170 47q82 45 143 136q66 94 94 247l111 547h184l-223 -1116h-184l37 190q-115 -125 -207 -172q-95 -49 -185 -49q-113 0 -182 68l-82 -410h-186z" />
<glyph unicode="&#xb6;" d="M100 1104q0 115 65.5 227.5t184.5 165.5q123 55 363 55h606v-155h-164v-1770h-154v1770h-217v-1770h-155v1049q-236 0 -381 125q-148 125 -148 303z" />
<glyph unicode="&#xb7;" d="M551 426v264h264v-264h-264z" />
<glyph unicode="&#xb8;" horiz-adv-x="1208" d="M434 -317q57 -31 119 -31q37 0 63.5 20.5t26.5 42.5q0 70 -184 88l108 197h109l-74 -131q104 -20 139 -66q33 -41 33 -92q0 -55 -43 -100t-137 -45q-86 0 -160 26v91z" />
<glyph unicode="&#xb9;" horiz-adv-x="821" d="M168 1352v133l192 90h140v-932h-140v782z" />
<glyph unicode="&#xba;" horiz-adv-x="759" d="M55 1241q0 178 97 268q94 88 229 88q133 0 227 -88q96 -90 97 -268q0 -176 -97 -266q-94 -88 -227 -88q-135 0 -229 88q-97 90 -97 266zM188 1241q0 -113 52 -178q53 -70 141 -70q86 0 139 70t53 178q0 113 -53 182q-53 68 -139 68q-90 0 -141 -68q-52 -65 -52 -182z" />
<glyph unicode="&#xbb;" horiz-adv-x="1093" d="M78 125l307 436l-307 432h170l325 -356v-156l-333 -356h-162zM512 125l305 436l-305 432h170l328 -356v-156l-336 -356h-162z" />
<glyph unicode="&#xbc;" horiz-adv-x="1853" d="M121 1321v133l192 90h140v-932h-140v783zM178 -78l1182 1645h176l-1159 -1645h-199zM1012 240v114l458 545h132v-534h133v-125h-133v-271h-140v271h-450zM1186 365h276v333z" />
<glyph unicode="&#xbd;" horiz-adv-x="1853" d="M88 1352v133l195 90h139v-932h-139v782zM147 -47l1182 1644h176l-1159 -1644h-199zM1137 0v117q0 70 47 157q51 96 159 175l64 47l59 45q90 70 111 106q16 31 16 70q0 47 -41 79.5t-118 32.5q-68 0 -101 -20q-35 -23 -35 -47v-25h-139v25q0 66 69.5 129t211.5 63 q168 0 237 -69q72 -72 72 -164q0 -47 -22.5 -102.5t-84.5 -104.5l-108 -82l-45 -31q-209 -141 -209 -264v-6h485v-131h-628z" />
<glyph unicode="&#xbe;" horiz-adv-x="1853" d="M74 815v23h133v-23q0 -23 26 -47q25 -23 117 -23q104 0 144 56q39 53 38 117q0 72 -63 122q-66 53 -203 54h-59v125h72q76 0 120 22q43 22 68 55q27 37 27 70q0 37 -33 74q-31 35 -111 35q-74 0 -110 -27q-33 -25 -33 -51v-25h-125v25q0 51 39 98t104 76q61 27 144 26 q119 0 194.5 -55t75.5 -153q0 -61 -23 -109q-25 -53 -131 -113q127 -59 160 -118q35 -63 35 -131q0 -115 -86 -207q-84 -90 -254 -90q-119 0 -192.5 55t-73.5 139zM225 -78l1182 1645h176l-1159 -1645h-199zM1059 240v114l459 545h131v-534h133v-125h-133v-271h-140v271 h-450zM1233 365h276v333z" />
<glyph unicode="&#xbf;" horiz-adv-x="1163" d="M186 -143q0 43 23 120q20 70 137 181l72 63q70 66 112 137q45 74 45 228v135h187v-94q0 -160 -53 -267q-51 -102 -109 -165l-80 -86q-80 -86 -108 -136q-31 -51 -31 -102q0 -86 75.5 -141.5t188.5 -55.5q94 0 147.5 35t53.5 111v10h194v-10q0 -68 -53 -144 q-53 -74 -149 -116q-94 -41 -213 -41q-117 0 -224 47q-104 47 -159 125q-56 80 -56 166zM575 932v184h187v-184h-187z" />
<glyph unicode="&#xc0;" horiz-adv-x="1488" d="M31 0l637 1552h202l588 -1552h-219l-160 426h-686l-176 -426h-186zM455 582h565l-272 721zM1063 1722h-242l-395 201h326z" />
<glyph unicode="&#xc1;" horiz-adv-x="1488" d="M31 0l637 1552h202l588 -1552h-219l-160 426h-686l-176 -426h-186zM455 582h565l-272 721zM487 1722l312 201h325l-395 -201h-242z" />
<glyph unicode="&#xc2;" horiz-adv-x="1488" d="M31 0l637 1552h202l588 -1552h-219l-160 426h-686l-176 -426h-186zM455 582h565l-272 721zM750 1784l-140 -62h-217l295 201h123l297 -201h-217z" />
<glyph unicode="&#xc3;" horiz-adv-x="1488" d="M31 0l637 1552h202l588 -1552h-219l-160 426h-686l-176 -426h-186zM455 582h565l-272 721zM508 1722h-125q10 70 45 115q37 47 76 68q35 18 90 18q66 0 127 -20l98 -33q63 -23 90 -23q25 0 50 15q22 12 36 61h123q-23 -109 -84 -154q-66 -47 -133 -47q-47 0 -133 33 l-68 27l-24 8q-49 18 -80 18q-20 0 -49 -14q-31 -15 -39 -72z" />
<glyph unicode="&#xc4;" horiz-adv-x="1488" d="M31 0l637 1552h202l588 -1552h-219l-160 426h-686l-176 -426h-186zM455 582h565l-272 721zM459 1722v187h186v-187h-186zM893 1722v187h187v-187h-187z" />
<glyph unicode="&#xc5;" horiz-adv-x="1488" d="M31 0l637 1552q-45 31 -64 68q-23 41 -22 86q0 76 55 131t131 55t131 -55t55 -131q0 -45 -20.5 -84t-63.5 -70l588 -1552h-219l-160 426h-686l-176 -426h-186zM455 582h565l-272 721zM676 1706q0 -37 26 -64q29 -29 66 -28.5t66 28.5q27 27 26 64q0 39 -26 66 q-29 29 -66 28.5t-66 -28.5q-26 -27 -26 -66z" />
<glyph unicode="&#xc6;" horiz-adv-x="2031" d="M0 0l1001 1552h877v-172h-676v-487h590v-156h-590v-567h729v-170h-930v426h-516l-280 -426h-205zM584 582h417v645z" />
<glyph unicode="&#xc7;" horiz-adv-x="1333" d="M78 748q0 307 80 479q80 174 231 272q154 100 363 100q141 0 254 -45q106 -43 172 -139q63 -94 63 -186v-10h-186v10q0 61 -35 110q-35 51 -102 78q-66 27 -160 27q-238 0 -355 -189q-117 -187 -116 -479q0 -293 116 -481q117 -186 355 -186q164 0 229 65q68 68 68 150 v10h186v-10q0 -86 -53 -172q-55 -90 -152 -140q-94 -49 -274 -57l-45 -86q104 -20 139 -66q33 -41 33 -92q0 -55 -43 -100t-139 -45q-84 0 -158 26v91q57 -31 117 -31q37 0 63 20q29 23 29 43q0 70 -187 88l84 152q-193 23 -325 133q-131 111 -193 260q-59 146 -59 400z" />
<glyph unicode="&#xc8;" horiz-adv-x="1177" d="M147 0v1552h877v-172h-676v-487h590v-156h-590v-567h729v-170h-930zM936 1722h-242l-395 201h326z" />
<glyph unicode="&#xc9;" horiz-adv-x="1177" d="M147 0v1552h877v-172h-676v-487h590v-156h-590v-567h729v-170h-930zM299 1722l312 201h325l-395 -201h-242z" />
<glyph unicode="&#xca;" horiz-adv-x="1177" d="M147 0v1552h877v-172h-676v-487h590v-156h-590v-567h729v-170h-930zM617 1784l-140 -62h-217l295 201h123l297 -201h-217z" />
<glyph unicode="&#xcb;" horiz-adv-x="1177" d="M147 0v1552h877v-172h-676v-487h590v-156h-590v-567h729v-170h-930zM303 1722v187h186v-187h-186zM737 1722v187h187v-187h-187z" />
<glyph unicode="&#xcc;" horiz-adv-x="495" d="M147 0v1552h201v-1552h-201zM571 1722h-242l-395 201h326z" />
<glyph unicode="&#xcd;" horiz-adv-x="495" d="M147 0v1552h201v-1552h-201zM-68 1722l312 201h325l-395 -201h-242z" />
<glyph unicode="&#xce;" horiz-adv-x="495" d="M147 0v1552h201v-1552h-201zM252 1784l-140 -62h-217l295 201h123l297 -201h-217z" />
<glyph unicode="&#xcf;" horiz-adv-x="495" d="M147 0v1552h201v-1552h-201zM-57 1722v187h186v-187h-186zM377 1722v187h187v-187h-187z" />
<glyph unicode="&#xd0;" horiz-adv-x="1433" d="M-39 715v153h186v684h428q313 0 459 -86q150 -90 228 -258q80 -176 79 -426q0 -236 -73 -407q-74 -174 -221 -275q-145 -100 -443 -100h-457v715h-186zM348 170h240q211 0 321 63q106 59 166 197q57 129 58 336q0 199 -53.5 346.5t-159.5 214.5q-111 70 -336 70h-236 v-529h281v-153h-281v-545z" />
<glyph unicode="&#xd1;" horiz-adv-x="1449" d="M147 0v1552h199l711 -1103l63 -123l-4 123v1103h187v-1552h-197l-713 1108l-63 125l4 -125v-1108h-187zM487 1722h-125q10 70 45 115q37 47 76 68q35 18 90 18q66 0 127 -20l98 -33q63 -23 90 -23q25 0 50 15q22 12 36 61h123q-23 -109 -84 -154q-66 -47 -133 -47 q-47 0 -133 33l-68 27l-24 8q-49 18 -80 18q-20 0 -49 -14q-31 -15 -39 -72z" />
<glyph unicode="&#xd2;" horiz-adv-x="1503" d="M92 776q0 396 184 608q184 213 475 213t476 -213q184 -212 184 -608q0 -393 -184.5 -608t-475 -215t-475 215t-184.5 608zM301 776q0 -303 121 -485t330 -182q211 0 331 182q119 180 119 485q0 301 -119 484q-120 184 -331 184t-330 -184q-121 -187 -121 -484zM1071 1722 h-242l-395 201h326z" />
<glyph unicode="&#xd3;" horiz-adv-x="1503" d="M92 776q0 396 184 608q184 213 475 213t476 -213q184 -212 184 -608q0 -393 -184.5 -608t-475 -215t-475 215t-184.5 608zM301 776q0 -303 121 -485t330 -182q211 0 331 182q119 180 119 485q0 301 -119 484q-120 184 -331 184t-330 -184q-121 -187 -121 -484zM438 1722 l312 201h325l-395 -201h-242z" />
<glyph unicode="&#xd4;" horiz-adv-x="1503" d="M92 776q0 396 184 608q184 213 475 213t476 -213q184 -212 184 -608q0 -393 -184.5 -608t-475 -215t-475 215t-184.5 608zM301 776q0 -303 121 -485t330 -182q211 0 331 182q119 180 119 485q0 301 -119 484q-120 184 -331 184t-330 -184q-121 -187 -121 -484zM752 1784 l-140 -62h-217l295 201h123l297 -201h-217z" />
<glyph unicode="&#xd5;" horiz-adv-x="1503" d="M92 776q0 396 184 608q184 213 475 213t476 -213q184 -212 184 -608q0 -393 -184.5 -608t-475 -215t-475 215t-184.5 608zM301 776q0 -303 121 -485t330 -182q211 0 331 182q119 180 119 485q0 301 -119 484q-120 184 -331 184t-330 -184q-121 -187 -121 -484zM510 1722 h-125q10 70 45 115q37 47 76 68q35 18 90 18q66 0 127 -20l98 -33q63 -23 90 -23q25 0 50 15q22 12 36 61h123q-23 -109 -84 -154q-66 -47 -133 -47q-47 0 -133 33l-68 27l-24 8q-49 18 -80 18q-20 0 -49 -14q-31 -15 -39 -72z" />
<glyph unicode="&#xd6;" horiz-adv-x="1503" d="M92 776q0 396 184 608q184 213 475 213t476 -213q184 -212 184 -608q0 -393 -184.5 -608t-475 -215t-475 215t-184.5 608zM301 776q0 -303 121 -485t330 -182q211 0 331 182q119 180 119 485q0 301 -119 484q-120 184 -331 184t-330 -184q-121 -187 -121 -484zM442 1722 v187h186v-187h-186zM876 1722v187h187v-187h-187z" />
<glyph unicode="&#xd7;" d="M125 115l444 444l-444 453l108 104l449 -446l438 446l121 -98l-453 -459l453 -450l-115 -109l-444 451l-455 -451z" />
<glyph unicode="&#xd8;" horiz-adv-x="1503" d="M92 -47l160 244q-104 150 -131 292q-29 156 -29 306q0 369 184.5 585.5t481.5 216.5q207 0 375 -127l88 127h190l-164 -239q96 -133 131 -277q33 -137 33 -311q0 -276 -84 -451q-86 -178 -229 -270q-150 -96 -344 -96q-225 0 -389 129l-89 -129h-184zM295 786 q0 -86 12 -184q12 -96 68 -229l657 952q-86 80 -166 100q-74 18 -125 19q-207 0 -327 -182q-119 -181 -119 -476zM469 231q117 -123 283 -122q215 0 331 184q119 188 119 487q0 229 -78 402z" />
<glyph unicode="&#xd9;" d="M125 526v1026h201v-997q0 -219 43 -293t133 -115q86 -39 200 -38q109 0 189 38q84 41 123 125q41 88 41 353v927h186v-979q0 -268 -63 -383q-59 -106 -181 -174q-115 -63 -297 -63q-168 0 -303 51q-139 53 -204 158q-68 108 -68 364zM1006 1722h-242l-395 201h326z" />
<glyph unicode="&#xda;" d="M125 526v1026h201v-997q0 -219 43 -293t133 -115q86 -39 200 -38q109 0 189 38q84 41 123 125q41 88 41 353v927h186v-979q0 -268 -63 -383q-59 -106 -181 -174q-115 -63 -297 -63q-168 0 -303 51q-139 53 -204 158q-68 108 -68 364zM315 1722l312 201h325l-395 -201 h-242z" />
<glyph unicode="&#xdb;" d="M125 526v1026h201v-997q0 -219 43 -293t133 -115q86 -39 200 -38q109 0 189 38q84 41 123 125q41 88 41 353v927h186v-979q0 -268 -63 -383q-59 -106 -181 -174q-115 -63 -297 -63q-168 0 -303 51q-139 53 -204 158q-68 108 -68 364zM686 1784l-140 -62h-217l295 201h123 l297 -201h-217z" />
<glyph unicode="&#xdc;" d="M125 526v1026h201v-997q0 -219 43 -293t133 -115q86 -39 200 -38q109 0 189 38q84 41 123 125q41 88 41 353v927h186v-979q0 -268 -63 -383q-59 -106 -181 -174q-115 -63 -297 -63q-168 0 -303 51q-139 53 -204 158q-68 108 -68 364zM373 1722v187h186v-187h-186z M807 1722v187h187v-187h-187z" />
<glyph unicode="&#xdd;" horiz-adv-x="1247" d="M23 1552h235l387 -626l383 626h197l-498 -821v-731h-201v731zM409 1722l312 201h325l-395 -201h-242z" />
<glyph unicode="&#xde;" horiz-adv-x="1193" d="M147 0v1552h201v-280h232q242 0 348 -51q101 -49 153 -148q51 -96 52 -225q0 -217 -150 -367q-147 -147 -442 -147h-193v-334h-201zM348 489h137q268 0 353 103q86 104 86 246q0 123 -70 202q-68 76 -270 76h-236v-627z" />
<glyph unicode="&#xdf;" horiz-adv-x="1208" d="M147 0v1149q0 174 49.5 270.5t139.5 145.5t217 49q156 0 266 -68q113 -70 113 -198q0 -72 -39 -140q-35 -59 -98 -127l-45 -47q-82 -84 -82 -129q0 -61 125 -155l43 -31l55 -43l78 -60q180 -147 180 -317q0 -139 -96 -236q-94 -94 -275 -94q-152 0 -260 41v174 q88 -39 168 -49q86 -10 107 -10q66 0 110 37q51 41 51 112q0 59 -36 115q-39 59 -170 160l-58 43q-23 16 -43 33q-115 86 -145 139q-29 51 -29 102q0 86 88 183q23 27 29 32l53 64q94 113 94 180q0 52 -55 92q-57 41 -133 41q-92 0 -153.5 -55t-61.5 -236v-1167h-187z" />
<glyph unicode="&#xe0;" horiz-adv-x="1132" d="M109 274q0 160 135 250t463 154l100 18v125q0 100 -70 146q-63 41 -166 41q-117 0 -180 -52q-66 -53 -65 -118v-17h-201v17q0 72 61 151q63 82 166 121t228 39q115 0 221 -39q98 -35 145 -102q47 -66 47 -242v-434q0 -43 4 -150q2 -74 35 -182h-196q-29 92 -29 156 q-123 -120 -209 -154q-84 -33 -166 -33q-133 0 -227 82q-96 84 -96 223zM309 270q0 -45 25 -82q27 -39 69.5 -59t90.5 -20q78 0 153.5 45t118.5 122q41 74 41 177v110l-55 -12q-279 -68 -363 -131q-80 -62 -80 -150zM313 1614h217l295 -326h-170z" />
<glyph unicode="&#xe1;" horiz-adv-x="1132" d="M109 274q0 160 135 250t463 154l100 18v125q0 100 -70 146q-63 41 -166 41q-117 0 -180 -52q-66 -53 -65 -118v-17h-201v17q0 72 61 151q63 82 166 121t228 39q115 0 221 -39q98 -35 145 -102q47 -66 47 -242v-434q0 -43 4 -150q2 -74 35 -182h-196q-29 92 -29 156 q-123 -120 -209 -154q-84 -33 -166 -33q-133 0 -227 82q-96 84 -96 223zM309 270q0 -45 25 -82q27 -39 69.5 -59t90.5 -20q78 0 153.5 45t118.5 122q41 74 41 177v110l-55 -12q-279 -68 -363 -131q-80 -62 -80 -150zM344 1288l297 326h215l-342 -326h-170z" />
<glyph unicode="&#xe2;" horiz-adv-x="1132" d="M109 274q0 160 135 250t463 154l100 18v125q0 100 -70 146q-63 41 -166 41q-117 0 -180 -52q-66 -53 -65 -118v-17h-201v17q0 72 61 151q63 82 166 121t228 39q115 0 221 -39q98 -35 145 -102q47 -66 47 -242v-434q0 -43 4 -150q2 -74 35 -182h-196q-29 92 -29 156 q-123 -120 -209 -154q-84 -33 -166 -33q-133 0 -227 82q-96 84 -96 223zM309 270q0 -45 25 -82q27 -39 69.5 -59t90.5 -20q78 0 153.5 45t118.5 122q41 74 41 177v110l-55 -12q-279 -68 -363 -131q-80 -62 -80 -150zM295 1288l234 326h125l231 -326h-156l-139 168l-139 -168 h-156z" />
<glyph unicode="&#xe3;" horiz-adv-x="1132" d="M109 274q0 160 135 250t463 154l100 18v125q0 100 -70 146q-63 41 -166 41q-117 0 -180 -52q-66 -53 -65 -118v-17h-201v17q0 72 61 151q63 82 166 121t228 39q115 0 221 -39q98 -35 145 -102q47 -66 47 -242v-434q0 -43 4 -150q2 -74 35 -182h-196q-29 92 -29 156 q-123 -120 -209 -154q-84 -33 -166 -33q-133 0 -227 82q-96 84 -96 223zM309 270q0 -45 25 -82q27 -39 69.5 -59t90.5 -20q78 0 153.5 45t118.5 122q41 74 41 177v110l-55 -12q-279 -68 -363 -131q-80 -62 -80 -150zM248 1288q0 135 51 195q51 61 131 61q59 0 125 -41 l43 -24q82 -51 114 -52q61 0 62 117h127q-6 -100 -28.5 -149t-63.5 -78q-43 -31 -97 -31q-68 0 -141 49l-43 31q-57 39 -84 39q-72 0 -72 -117h-124z" />
<glyph unicode="&#xe4;" horiz-adv-x="1132" d="M109 274q0 160 135 250t463 154l100 18v125q0 100 -70 146q-63 41 -166 41q-117 0 -180 -52q-66 -53 -65 -118v-17h-201v17q0 72 61 151q63 82 166 121t228 39q115 0 221 -39q98 -35 145 -102q47 -66 47 -242v-434q0 -43 4 -150q2 -74 35 -182h-196q-29 92 -29 156 q-123 -120 -209 -154q-84 -33 -166 -33q-133 0 -227 82q-96 84 -96 223zM309 270q0 -45 25 -82q27 -39 69.5 -59t90.5 -20q78 0 153.5 45t118.5 122q41 74 41 177v110l-55 -12q-279 -68 -363 -131q-80 -62 -80 -150zM264 1288v187h186v-187h-186zM698 1288v187h186v-187 h-186z" />
<glyph unicode="&#xe5;" horiz-adv-x="1132" d="M109 274q0 160 135 250t463 154l100 18v125q0 100 -70 146q-63 41 -166 41q-117 0 -180 -52q-66 -53 -65 -118v-17h-201v17q0 72 61 151q63 82 166 121t228 39q115 0 221 -39q98 -35 145 -102q47 -66 47 -242v-434q0 -43 4 -150q2 -74 35 -182h-196q-29 92 -29 156 q-123 -120 -209 -154q-84 -33 -166 -33q-133 0 -227 82q-96 84 -96 223zM309 270q0 -45 25 -82q27 -39 69.5 -59t90.5 -20q78 0 153.5 45t118.5 122q41 74 41 177v110l-55 -12q-279 -68 -363 -131q-80 -62 -80 -150zM573 1380q39 0 68 29q27 27 26.5 65.5t-27 65.5t-67.5 27 q-39 0 -65.5 -27t-26.5 -65.5t27 -65.5q28 -29 65 -29zM573 1288q-76 0 -131 55q-53 53 -53 132q0 76 53 129q57 57 131 57q76 0 133 -57q53 -53 54 -129q0 -78 -54 -132q-55 -55 -133 -55z" />
<glyph unicode="&#xe6;" horiz-adv-x="1900" d="M109 274q0 96 45 162q46 68 159 123q115 55 398 117l118 24v45q0 158 -71.5 211.5t-179.5 53.5q-123 0 -187 -52q-66 -53 -65 -120v-17h-201v15q0 74 61 151q59 76 166 119q104 43 219 43q109 0 215.5 -41t176.5 -166q46 83 98 123q53 41 125 61q78 23 153 23 q193 0 324 -131q129 -129 129 -420v-63h-793v-35q0 -143 97 -258q98 -117 268 -117q129 0 180 53q53 57 53 98v11h195v-11q0 -72 -61 -149q-63 -80 -164 -119q-98 -39 -213 -39q-127 0 -244 51q-125 55 -197 213q-100 -143 -215 -204q-111 -59 -247 -60q-158 0 -250 86 t-92 219zM317 270q0 -82 62 -120q63 -41 131 -41q78 0 156 51q80 52 122 147q41 90 41 209v49l-69 -16q-238 -63 -303 -96q-72 -35 -107 -84q-33 -46 -33 -99zM1012 676h602v22q0 70 -39 146q-41 80 -107 114q-63 35 -147 35q-111 0 -199 -88q-90 -90 -110 -229z" />
<glyph unicode="&#xe7;" horiz-adv-x="1116" d="M92 543q0 297 137 452q135 154 377 154q127 0 221 -41q92 -40 148 -117q57 -80 57 -151v-11h-186v11q0 61 -58 106q-59 47 -172 47q-139 0 -233 -102q-96 -106 -96 -331.5t96 -332.5q94 -102 233 -102q115 0 172.5 45t57.5 106v11h184v-11q0 -72 -49 -143 q-47 -68 -133 -113q-76 -39 -203 -49l-57 -102q104 -20 139 -66q33 -41 33 -92q0 -55 -43 -100t-139 -45q-84 0 -158 26v91q59 -31 119 -31q35 0 61 20q29 23 29 43q0 70 -187 88l95 168q-219 35 -332 170q-113 138 -113 402z" />
<glyph unicode="&#xe8;" horiz-adv-x="1177" d="M106 551q0 260 148 428q147 170 376 170q127 0 232 -55q98 -53 162 -172q59 -113 59 -324v-63h-793q0 -176 97 -295q94 -115 268 -115q123 0 180 47q55 46 56 104v11h186v-11q0 -72 -59 -149q-61 -80 -156 -119q-96 -39 -223 -39q-256 0 -394 164q-139 168 -139 418z M303 676h604v20q0 74 -39 152q-37 74 -102 110q-61 35 -154 35q-102 0 -192 -84q-89 -82 -117 -233zM342 1614h217l295 -326h-170z" />
<glyph unicode="&#xe9;" horiz-adv-x="1177" d="M106 551q0 260 148 428q147 170 376 170q127 0 232 -55q98 -53 162 -172q59 -113 59 -324v-63h-793q0 -176 97 -295q94 -115 268 -115q123 0 180 47q55 46 56 104v11h186v-11q0 -72 -59 -149q-61 -80 -156 -119q-96 -39 -223 -39q-256 0 -394 164q-139 168 -139 418z M303 676h604v20q0 74 -39 152q-37 74 -102 110q-61 35 -154 35q-102 0 -192 -84q-89 -82 -117 -233zM372 1288l297 326h215l-342 -326h-170z" />
<glyph unicode="&#xea;" horiz-adv-x="1177" d="M106 551q0 260 148 428q147 170 376 170q127 0 232 -55q98 -53 162 -172q59 -113 59 -324v-63h-793q0 -176 97 -295q94 -115 268 -115q123 0 180 47q55 46 56 104v11h186v-11q0 -72 -59 -149q-61 -80 -156 -119q-96 -39 -223 -39q-256 0 -394 164q-139 168 -139 418z M303 676h604v20q0 74 -39 152q-37 74 -102 110q-61 35 -154 35q-102 0 -192 -84q-89 -82 -117 -233zM307 1288l234 326h125l231 -326h-156l-139 168l-139 -168h-156z" />
<glyph unicode="&#xeb;" horiz-adv-x="1177" d="M106 551q0 260 148 428q147 170 376 170q127 0 232 -55q98 -53 162 -172q59 -113 59 -324v-63h-793q0 -176 97 -295q94 -115 268 -115q123 0 180 47q55 46 56 104v11h186v-11q0 -72 -59 -149q-61 -80 -156 -119q-96 -39 -223 -39q-256 0 -394 164q-139 168 -139 418z M303 676h604v20q0 74 -39 152q-37 74 -102 110q-61 35 -154 35q-102 0 -192 -84q-89 -82 -117 -233zM293 1288v187h186v-187h-186zM727 1288v187h186v-187h-186z" />
<glyph unicode="&#xec;" horiz-adv-x="479" d="M147 1116h187v-1116h-187v1116zM-13 1614h217l295 -326h-170z" />
<glyph unicode="&#xed;" horiz-adv-x="479" d="M147 1116h187v-1116h-187v1116zM-13 1288l297 326h215l-342 -326h-170z" />
<glyph unicode="&#xee;" horiz-adv-x="479" d="M147 1116h187v-1116h-187v1116zM-49 1288l234 326h125l231 -326h-156l-139 168l-139 -168h-156z" />
<glyph unicode="&#xef;" horiz-adv-x="479" d="M147 1116h187v-1116h-187v1116zM-65 1288v187h186v-187h-186zM369 1288v187h186v-187h-186z" />
<glyph unicode="&#xf0;" horiz-adv-x="1216" d="M78 537q0 164 65.5 288.5t188.5 192t256 67.5q55 0 119 -12q57 -10 170 -82q-35 92 -97 180q-55 80 -180 172l-223 -202l-105 116l183 160q-133 41 -267 41h-24v156h33q135 0 211 -10q90 -12 192 -56l215 197l105 -117l-179 -160q145 -117 230 -247q76 -121 121 -289 q41 -156 41 -320q0 -295 -137.5 -469t-393.5 -174q-238 0 -381 158t-143 410zM272 528q0 -176 93 -290q92 -113 241 -113q147 0 240 113q92 115 92 290t-92 289q-92 115 -240 115q-150 0 -241 -115q-93 -114 -93 -289z" />
<glyph unicode="&#xf1;" horiz-adv-x="1193" d="M147 0v1116h187v-192q57 90 115 135q63 49 114 67q63 23 135 23q104 0 189 -43q82 -43 129 -127t47 -268v-711h-186v631q0 154 -21 213q-23 63 -78 98t-127 35q-86 0 -155 -47q-78 -51 -119 -135q-43 -86 -43 -246v-549h-187zM279 1288q0 135 51 195q51 61 131 61 q59 0 125 -41l43 -24q82 -51 114 -52q61 0 62 117h127q-6 -100 -28.5 -149t-63.5 -78q-43 -31 -97 -31q-68 0 -141 49l-43 31q-57 39 -84 39q-72 0 -72 -117h-124z" />
<glyph unicode="&#xf2;" horiz-adv-x="1239" d="M92 559q0 291 155.5 440.5t373 149.5t373 -149.5t155.5 -440.5q0 -293 -156 -442q-154 -147 -373 -147.5t-372 147.5q-156 149 -156 442zM287 559.5q0 -194.5 92 -315.5q92 -119 241.5 -119t241.5 119q92 121 92 315.5t-92 314.5q-92 119 -241.5 119t-241.5 -119 q-92 -120 -92 -314.5zM362 1614h217l295 -326h-170z" />
<glyph unicode="&#xf3;" horiz-adv-x="1239" d="M92 559q0 291 155.5 440.5t373 149.5t373 -149.5t155.5 -440.5q0 -293 -156 -442q-154 -147 -373 -147.5t-372 147.5q-156 149 -156 442zM287 559.5q0 -194.5 92 -315.5q92 -119 241.5 -119t241.5 119q92 121 92 315.5t-92 314.5q-92 119 -241.5 119t-241.5 -119 q-92 -120 -92 -314.5zM395 1288l297 326h215l-342 -326h-170z" />
<glyph unicode="&#xf4;" horiz-adv-x="1239" d="M92 559q0 291 155.5 440.5t373 149.5t373 -149.5t155.5 -440.5q0 -293 -156 -442q-154 -147 -373 -147.5t-372 147.5q-156 149 -156 442zM287 559.5q0 -194.5 92 -315.5q92 -119 241.5 -119t241.5 119q92 121 92 315.5t-92 314.5q-92 119 -241.5 119t-241.5 -119 q-92 -120 -92 -314.5zM325 1288l234 326h125l231 -326h-156l-139 168l-139 -168h-156z" />
<glyph unicode="&#xf5;" horiz-adv-x="1239" d="M92 559q0 291 155.5 440.5t373 149.5t373 -149.5t155.5 -440.5q0 -293 -156 -442q-154 -147 -373 -147.5t-372 147.5q-156 149 -156 442zM287 559.5q0 -194.5 92 -315.5q92 -119 241.5 -119t241.5 119q92 121 92 315.5t-92 314.5q-92 119 -241.5 119t-241.5 -119 q-92 -120 -92 -314.5zM295 1288q0 135 51 195q51 61 131 61q59 0 125 -41l43 -24q82 -51 114 -52q61 0 62 117h127q-6 -100 -28.5 -149t-63.5 -78q-43 -31 -97 -31q-68 0 -141 49l-43 31q-57 39 -84 39q-72 0 -72 -117h-124z" />
<glyph unicode="&#xf6;" horiz-adv-x="1239" d="M92 559q0 291 155.5 440.5t373 149.5t373 -149.5t155.5 -440.5q0 -293 -156 -442q-154 -147 -373 -147.5t-372 147.5q-156 149 -156 442zM287 559.5q0 -194.5 92 -315.5q92 -119 241.5 -119t241.5 119q92 121 92 315.5t-92 314.5q-92 119 -241.5 119t-241.5 -119 q-92 -120 -92 -314.5zM311 1288v187h186v-187h-186zM745 1288v187h186v-187h-186z" />
<glyph unicode="&#xf7;" d="M125 481v156h1116v-156h-1116zM594 139v178h186v-178h-186zM594 791v186h186v-186h-186z" />
<glyph unicode="&#xf8;" horiz-adv-x="1239" d="M92 -31l133 172q-84 104 -108 209q-25 100 -25 213q0 289 156 436q160 150 375 150q154 0 290 -84l64 84h172l-129 -178q78 -100 102 -199q27 -111 27 -217q0 -297 -160 -440q-162 -145 -364 -146q-168 0 -293 78l-62 -78h-178zM287 561q0 -147 55 -262l469 629 q-88 66 -190 65q-150 0 -242 -121q-92 -118 -92 -311zM432 186q80 -61 189 -61q150 0 241 119q92 121 92 311q0 145 -53 258z" />
<glyph unicode="&#xf9;" horiz-adv-x="1193" d="M131 410v706h186v-629q0 -244 66 -297q63 -51 162 -51q82 0 155.5 49.5t116.5 135.5t43 243v549h187v-1116h-187v195q-59 -90 -112 -136q-55 -45 -115 -67q-61 -23 -129 -23q-154 0 -264 88q-109 87 -109 353zM307 1614h217l295 -326h-170z" />
<glyph unicode="&#xfa;" horiz-adv-x="1193" d="M131 410v706h186v-629q0 -244 66 -297q63 -51 162 -51q82 0 155.5 49.5t116.5 135.5t43 243v549h187v-1116h-187v195q-59 -90 -112 -136q-55 -45 -115 -67q-61 -23 -129 -23q-154 0 -264 88q-109 87 -109 353zM362 1288l297 326h215l-342 -326h-170z" />
<glyph unicode="&#xfb;" horiz-adv-x="1193" d="M131 410v706h186v-629q0 -244 66 -297q63 -51 162 -51q82 0 155.5 49.5t116.5 135.5t43 243v549h187v-1116h-187v195q-59 -90 -112 -136q-55 -45 -115 -67q-61 -23 -129 -23q-154 0 -264 88q-109 87 -109 353zM299 1288l234 326h125l231 -326h-156l-139 168l-139 -168 h-156z" />
<glyph unicode="&#xfc;" horiz-adv-x="1193" d="M131 410v706h186v-629q0 -244 66 -297q63 -51 162 -51q82 0 155.5 49.5t116.5 135.5t43 243v549h187v-1116h-187v195q-59 -90 -112 -136q-55 -45 -115 -67q-61 -23 -129 -23q-154 0 -264 88q-109 87 -109 353zM285 1288v187h186v-187h-186zM719 1288v187h186v-187h-186z " />
<glyph unicode="&#xfd;" horiz-adv-x="1169" d="M31 1116h207l372 -829l351 829h188l-471 -1116q-95 -227 -160 -301q-61 -70 -135 -102q-71 -31 -190 -31h-142v155h107q80 0 135 21q57 20 96 65.5t103 196.5l20 43zM440 1288l297 326h215l-342 -326h-170z" />
<glyph unicode="&#xfe;" horiz-adv-x="1232" d="M131 -434v1986h186v-628q59 100 111 139q55 43 119 63q68 23 135 23q129 0 236 -70q104 -70 163 -209q59 -141 60 -309q0 -255 -123 -424q-123 -168 -344 -168q-74 0 -135 21q-63 20 -113 61q-47 37 -109 144v-629h-186zM317 557q0 -190 82 -311t232 -121q137 0 225 106 q90 109 90 324q0 252 -94 348q-94 98 -217 98q-86 0 -164 -53q-76 -51 -115 -160q-39 -110 -39 -231z" />
<glyph unicode="&#xff;" horiz-adv-x="1169" d="M31 1116h207l372 -829l351 829h188l-471 -1116q-95 -227 -160 -301q-61 -70 -135 -102q-71 -31 -190 -31h-142v155h107q80 0 135 21q57 20 96 65.5t103 196.5l20 43zM295 1288v187h186v-187h-186zM729 1288v187h186v-187h-186z" />
<glyph unicode="&#x131;" horiz-adv-x="479" d="M147 1116h187v-1116h-187v1116z" />
<glyph unicode="&#x152;" horiz-adv-x="2232" d="M92 776q0 389 182 606q181 215 492 215q131 0 233.5 -45t204.5 -172v172h877v-172h-674v-487h590v-156h-590v-567h727v-170h-930v170q-104 -133 -209 -174q-106 -43 -229 -43q-309 0 -491.5 217t-182.5 606zM301 776q0 -303 121 -485t332 -182q209 0 331 182 q121 178 121 485q0 301 -121 484q-123 184 -331 184q-212 0 -332 -184q-121 -187 -121 -484z" />
<glyph unicode="&#x153;" horiz-adv-x="2039" d="M92 559q0 297 160 445q158 145 366 145q117 0 236 -51q117 -51 199 -168q90 119 196 168q109 51 228 51q129 0 231 -55.5t164 -171.5q59 -113 59 -324v-63h-790q0 -176 96 -295q94 -115 268 -115q125 0 178 53q57 57 58 98v11h186v-11q0 -74 -59 -151q-57 -76 -158 -117 q-96 -39 -215 -39q-295 0 -442 226q-68 -117 -185 -170q-119 -55 -250 -56q-211 0 -368.5 145.5t-157.5 444.5zM287 559.5q0 -194.5 92 -315.5q92 -119 241.5 -119t241.5 119q92 121 92 315.5t-92 314.5q-92 119 -241.5 119t-241.5 -119q-92 -120 -92 -314.5zM1155 676h602 v20q0 66 -37 146q-39 82 -110 119q-78 39 -148 32q-100 0 -190 -84q-89 -82 -117 -233z" />
<glyph unicode="&#x178;" horiz-adv-x="1247" d="M23 1552h235l387 -626l383 626h197l-498 -821v-731h-201v731zM303 1722v187h186v-187h-186zM737 1722v187h187v-187h-187z" />
<glyph unicode="&#x2c6;" horiz-adv-x="1208" d="M309 1288l234 326h125l231 -326h-156l-139 168l-139 -168h-156z" />
<glyph unicode="&#x2da;" horiz-adv-x="1208" d="M604 1380q39 0 68 29q27 27 26.5 65.5t-27 65.5t-67.5 27q-39 0 -65.5 -27t-26.5 -65.5t27 -65.5q28 -29 65 -29zM604 1288q-76 0 -131 55q-53 53 -53 132q0 76 53 129q57 57 131 57q76 0 133 -57q53 -53 54 -129q0 -78 -54 -132q-55 -55 -133 -55z" />
<glyph unicode="&#x2dc;" horiz-adv-x="1208" d="M279 1288q0 135 51 195q51 61 131 61q59 0 125 -41l43 -24q82 -51 114 -52q61 0 62 117h127q-6 -100 -28.5 -149t-63.5 -78q-43 -31 -97 -31q-68 0 -141 49l-43 31q-57 39 -84 39q-72 0 -72 -117h-124z" />
<glyph unicode="&#x2000;" horiz-adv-x="960" />
<glyph unicode="&#x2001;" horiz-adv-x="1923" />
<glyph unicode="&#x2002;" horiz-adv-x="960" />
<glyph unicode="&#x2003;" horiz-adv-x="1923" />
<glyph unicode="&#x2004;" horiz-adv-x="638" />
<glyph unicode="&#x2005;" horiz-adv-x="479" />
<glyph unicode="&#x2006;" horiz-adv-x="319" />
<glyph unicode="&#x2007;" horiz-adv-x="319" />
<glyph unicode="&#x2008;" horiz-adv-x="239" />
<glyph unicode="&#x2009;" horiz-adv-x="382" />
<glyph unicode="&#x200a;" horiz-adv-x="104" />
<glyph unicode="&#x2010;" horiz-adv-x="774" d="M78 551v156h620v-156h-620z" />
<glyph unicode="&#x2011;" horiz-adv-x="774" d="M78 551v156h620v-156h-620z" />
<glyph unicode="&#x2012;" horiz-adv-x="774" d="M78 551v156h620v-156h-620z" />
<glyph unicode="&#x2013;" horiz-adv-x="1054" d="M61 528v154h932v-154h-932z" />
<glyph unicode="&#x2014;" horiz-adv-x="2109" d="M61 528v154h1987v-154h-1987z" />
<glyph unicode="&#x2018;" horiz-adv-x="620" d="M178 1008v163q0 145 29 225.5t86 143.5q59 66 149 105v-121q-49 -28 -73 -68q-29 -45 -39 -84q-12 -43 -13 -100h125v-264h-264z" />
<glyph unicode="&#x2019;" horiz-adv-x="620" d="M178 1008v120q49 28 74 68q27 43 39 86t12 98h-125v265h264v-164q0 -145 -28.5 -225t-85.5 -144q-60 -65 -150 -104z" />
<glyph unicode="&#x201a;" horiz-adv-x="620" d="M178 0v264h264v-164q0 -145 -28.5 -225t-85.5 -143q-59 -66 -150 -105v121q49 28 74 68q27 43 39 86t12 98h-125z" />
<glyph unicode="&#x201c;" horiz-adv-x="1007" d="M178 977v164q0 145 29 225t86 143q59 66 149 105v-121q-49 -28 -73 -68q-29 -45 -39 -84q-12 -43 -13 -100h125v-264h-264zM565 977v164q0 145 29 225t86 143q59 66 149 105v-121q-49 -28 -73 -68q-25 -39 -37 -84q-14 -51 -14 -100h124v-264h-264z" />
<glyph unicode="&#x201d;" horiz-adv-x="1007" d="M178 977v121q49 28 74 67q27 43 39 86t12 99h-125v264h264v-164q0 -145 -28.5 -225t-85.5 -144q-60 -65 -150 -104zM565 977v121q51 31 74 67q27 43 39 86t12 99h-125v264h264v-164q0 -145 -28.5 -225t-85.5 -144q-60 -65 -150 -104z" />
<glyph unicode="&#x201e;" horiz-adv-x="1007" d="M178 0v264h264v-164q0 -145 -28.5 -225t-85.5 -143q-59 -66 -150 -105v121q49 28 74 68q27 43 39 86t12 98h-125zM565 0v264h264v-164q0 -145 -28.5 -225t-85.5 -143q-59 -66 -150 -105v121q51 31 74 68q27 43 39 86t12 98h-125z" />
<glyph unicode="&#x2022;" d="M256 768q0 113 55 211q57 100 156 158q100 57 215 57q113 0 213 -57q98 -57 158 -156q57 -96 57 -213t-57 -213q-59 -100 -156 -158q-92 -55 -215 -55q-115 0 -215 57q-98 57 -156 158q-55 98 -55 211z" />
<glyph unicode="&#x2026;" horiz-adv-x="2109" d="M221 0v264h264v-264h-264zM924 0v264h264v-264h-264zM1624 0v264h264v-264h-264z" />
<glyph unicode="&#x202f;" horiz-adv-x="382" />
<glyph unicode="&#x2039;" horiz-adv-x="657" d="M86 481v156l334 356h162l-306 -438l306 -430h-170z" />
<glyph unicode="&#x203a;" horiz-adv-x="657" d="M78 125l307 436l-307 432h170l325 -356v-156l-333 -356h-162z" />
<glyph unicode="&#x205f;" horiz-adv-x="479" />
<glyph unicode="&#x20ac;" horiz-adv-x="1523" d="M25 510l49 156h213q-4 70 -4 110q0 51 2 76h-260l49 156h225q39 240 170 385q188 207 487 206q141 0 254 -45q106 -43 174 -141q63 -94 64 -184v-10h-188v10q0 59 -35 108q-37 53 -102.5 80t-159.5 27q-238 0 -355 -189q-72 -119 -96 -247h778l-49 -156h-747 q-2 -25 -2 -76q0 -41 4 -110h696l-51 -156h-621q27 -115 88 -215q117 -186 355 -186q164 0 229 65q68 68 68 150v10h188v-10q0 -92 -64 -187q-66 -96 -174 -139q-113 -45 -256 -45q-295 0 -483 207q-123 137 -166 350h-280z" />
<glyph unicode="&#x2122;" horiz-adv-x="1550" d="M86 1446v106h631v-106h-250v-670h-129v670h-252zM803 776v776h121l217 -508l202 508h123v-776h-120v496l-152 -385h-119l-160 379v-490h-112z" />
<glyph unicode="&#xfb01;" horiz-adv-x="1224" d="M70 963v153h163v53q0 242 103 344q100 100 266 101q70 0 158 -15v-151q-86 10 -125 10q-86 0 -154 -45q-61 -41 -61 -209v-88h657v-1116h-184v963h-473v-963h-187v963h-163z" />
<glyph unicode="&#xfb02;" horiz-adv-x="1224" d="M70 963v153h163v49q0 143 43 242q43 96 131.5 151.5t256.5 55.5q197 0 413 -35v-1579h-184v1423q-150 35 -238 35q-119 0 -176 -63q-59 -66 -59 -193v-86h325v-153h-325v-963h-187v963h-163z" />
<glyph unicode="&#xfb03;" horiz-adv-x="2023" d="M86 963v153h162v53q0 242 102 344q100 100 268 101q68 0 156 -15v-151q-86 10 -125 10q-84 0 -151 -45q-63 -43 -64 -209v-88h557v53q0 242 103 344q100 100 268 101q70 0 158 -15v-151q-86 10 -125 10q-86 0 -154 -45q-63 -43 -63 -209v-88h700v-1116h-186v963h-514 v-963h-187v963h-557v-963h-186v963h-162z" />
<glyph unicode="&#xfb04;" horiz-adv-x="2023" d="M86 963v153h162v53q0 242 102 344q100 100 268 101q68 0 156 -15v-151q-86 10 -125 10q-84 0 -151 -45q-63 -43 -64 -209v-88h557v49q0 143 43 242q41 94 133 152q90 55 256 55q238 0 455 -35v-1579h-186v1423q-190 35 -277 35q-121 0 -178 -63q-59 -66 -59 -193v-86h325 v-153h-325v-963h-187v963h-557v-963h-186v963h-162z" />
<glyph horiz-adv-x="1208" d="M1063 1722h-242l-395 201h326z" />
<glyph horiz-adv-x="1208" d="M487 1722l312 201h325l-395 -201h-242z" />
<glyph horiz-adv-x="1208" d="M303 1722v187h186v-187h-186zM737 1722v187h187v-187h-187z" />
<glyph horiz-adv-x="1208" d="M752 1784l-140 -62h-217l295 201h123l297 -201h-217z" />
<glyph horiz-adv-x="1208" d="M510 1722h-125q10 70 45 115q37 47 76 68q35 18 90 18q66 0 127 -20l98 -33q63 -23 90 -23q25 0 50 15q22 12 36 61h123q-23 -109 -84 -154q-66 -47 -133 -47q-47 0 -133 33l-68 27l-24 8q-49 18 -80 18q-20 0 -49 -14q-31 -15 -39 -72z" />
</font>
</defs>
</svg>
