<?xml version="1.0" standalone="no"?>
<!DOCTYPE svg PUBLIC "-//W3C//DTD SVG 1.1//EN" "http://www.w3.org/Graphics/SVG/1.1/DTD/svg11.dtd" >
<svg xmlns="http://www.w3.org/2000/svg">
<metadata>
This is a custom SVG webfont generated by Font Squirrel.
Copyright   : Copyright 19922003 Adobe Systems Incorporated All Rights Reserved US Patent Des 454582
Designer    : Robert Slimbach and Carol Twombly
Foundry     : Adobe Systems Incorporated
Foundry URL : httpwwwadobecomtype
</metadata>
<defs>
<font id="webfontYl3tjaAN" horiz-adv-x="1087" >
<font-face units-per-em="2048" ascent="1556" descent="-492" />
<missing-glyph horiz-adv-x="446" />
<glyph unicode=" "  horiz-adv-x="446" />
<glyph unicode="&#x09;" horiz-adv-x="446" />
<glyph unicode="&#xa0;" horiz-adv-x="446" />
<glyph unicode="!" horiz-adv-x="483" d="M115 111q0 59 36.5 96t90.5 37q55 0 92 -37q35 -35 35 -96q0 -55 -35 -94.5t-92 -39.5q-51 0 -90 39q-37 38 -37 95zM137 1380h207l-31 -979h-145z" />
<glyph unicode="&#x22;" horiz-adv-x="706" d="M100 1419h191l-37 -497h-117zM416 1419h190l-37 -497h-116z" />
<glyph unicode="#" horiz-adv-x="1052" d="M80 399v127h192l39 289h-180v127h199l53 389h127l-53 -389h219l51 389h127l-51 -389h172v-127h-191l-36 -289h178v-127h-199l-53 -399h-129l53 399h-217l-51 -399h-129l53 399h-174zM401 526h217l37 289h-217z" />
<glyph unicode="$" d="M135 121l53 147q141 -92 308 -92q109 0 176 55q70 57 69 140q0 80 -53 133q-51 51 -182 102q-186 72 -273 160q-80 82 -79 201q0 127 84 217q86 92 237 116v205h135v-198q156 -6 275 -74l-51 -143q-129 74 -273 73q-104 0 -160 -49q-57 -51 -57 -122.5t55 -121.5 q57 -51 203 -108q180 -72 254 -158q76 -88 76 -217q0 -131 -88 -227q-88 -98 -248 -125v-211h-135v205q-197 6 -326 92z" />
<glyph unicode="%" horiz-adv-x="1669" d="M61 936q0 193 94.5 305.5t239.5 112.5q147 0 233.5 -104.5t86.5 -291.5q0 -199 -97 -311q-94 -111 -235 -110q-139 0 -231 106q-91 105 -91 293zM215 944q0 -129 47 -213q45 -82 129 -82t129 78t45 221q0 139 -45 215q-47 78 -129 78q-80 0 -129 -82q-47 -80 -47 -215z M379 -23l788 1377h119l-788 -1377h-119zM954 387q0 188 95 301q96 115 239 115q147 0 233.5 -104.5t86.5 -290.5q0 -199 -97 -312q-94 -111 -235 -110q-139 0 -232 108q-90 105 -90 293zM1108 393q0 -139 47 -215q49 -80 129 -80q84 0 129 78t45 221q0 133 -43 213t-131 80 q-78 0 -129 -82q-47 -76 -47 -215z" />
<glyph unicode="&#x26;" horiz-adv-x="1275" d="M63 365q0 256 279 409q-119 145 -119 285q0 135 98.5 239.5t266.5 104.5q137 0 227 -84t90 -213q0 -117 -75.5 -205t-233.5 -168q313 -350 338 -375q94 137 137 400h174q-57 -344 -207 -512l236 -246h-227l-132 133q-174 -156 -413 -156q-193 0 -318 113 q-121 109 -121 275zM248 395q0 -120 80 -196q82 -78 207 -78q166 0 286 121l-393 428q-180 -111 -180 -275zM401 1077q0 -119 107 -243q126 68 178 129q53 63 53 135q0 74 -43 125t-118.5 51t-126.5 -57q-50 -56 -50 -140z" />
<glyph unicode="'" horiz-adv-x="391" d="M100 1419h191l-37 -497h-117z" />
<glyph unicode="(" horiz-adv-x="593" d="M133 585.5q0 481.5 270 837.5h148q-258 -346 -258 -839q0 -467 258 -830h-148q-270 350 -270 831.5z" />
<glyph unicode=")" horiz-adv-x="593" d="M43 -246q258 359 258 836t-258 833h147q270 -350 271 -833q0 -479 -271 -836h-147z" />
<glyph unicode="*" horiz-adv-x="866" d="M63 969v143l306 -37l-195 254l131 74l129 -289l127 289l127 -72l-199 -260l316 41v-143l-316 32l201 -247l-133 -76l-129 291l-133 -293l-121 78l199 254z" />
<glyph unicode="+" horiz-adv-x="1220" d="M84 483v129h459v480h137v-480h459v-129h-459v-483h-137v483h-459z" />
<glyph unicode="," horiz-adv-x="434" d="M31 -252q86 244 125 498l211 20q-88 -309 -201 -504z" />
<glyph unicode="-" horiz-adv-x="636" d="M61 485v140h514v-140h-514z" />
<glyph unicode="." horiz-adv-x="434" d="M106 111q0 59 37 96q39 39 93 39q55 0 92 -37q35 -35 34 -98q0 -57 -36 -95q-39 -39 -93 -39q-51 0 -90 39q-37 38 -37 95z" />
<glyph unicode="/" horiz-adv-x="716" d="M0 -82l575 1485h148l-580 -1485h-143z" />
<glyph unicode="0" d="M76 662q0 326 131 507q133 184 348 184.5t336 -177.5q121 -180 121 -496q0 -338 -125 -520.5t-352 -182.5q-207 0 -334 183q-125 180 -125 502zM266 672q0 -258 74 -402q74 -145 199 -145q137 0 206 141q72 143 72 406q0 252 -67.5 393t-206.5 141q-125 0 -201 -143 t-76 -391z" />
<glyph unicode="1" d="M221 1176l297 155h162v-1331h-184v1155h-4l-234 -123z" />
<glyph unicode="2" d="M94 0v117q455 412 559 559q96 135 97 262q0 121 -70 190q-68 68 -199 68q-150 0 -293 -117l-61 133q169 141 393 142q195 0 307.5 -113t112.5 -278q0 -145 -96 -308q-94 -158 -477 -497h606v-158h-879z" />
<glyph unicode="3" d="M90 72l49 145q147 -86 310 -86q147 0 227 74q78 72 78 178q0 123 -99 190q-100 70 -247 70h-111v143h111q121 0 210 60q88 57 89 158q0 88 -62 143q-59 53 -176 53q-141 0 -279 -90l-51 137q156 106 367 107q184 0 291 -90q104 -88 104 -230q0 -223 -252 -317 q137 -27 221 -121q82 -90 82 -219q0 -172 -135 -287q-133 -113 -366 -113q-216 1 -361 95z" />
<glyph unicode="4" d="M33 360v125l604 846h213v-823h188v-148h-188v-360h-182v360h-635zM225 512l443 -4v442v207q-76 -145 -107 -186z" />
<glyph unicode="5" d="M90 61l47 146q137 -76 299 -76q133 0 225.5 80t92.5 203q0 139 -101 217q-96 76 -291 76q-109 0 -194 -15l88 639h659v-160h-524l-49 -325q55 8 115 8q223 0 356 -113q135 -115 135 -309q0 -197 -145 -326q-143 -129 -365 -129q-203 0 -348 84z" />
<glyph unicode="6" d="M70 547q0 268 123 465q121 193 311 266.5t375 73.5l2 -156q-268 0 -428 -131q-156 -129 -181 -338q121 154 330 154q182 0 299 -119q117 -120 117 -313q0 -195 -129 -334q-129 -137 -332 -138q-217 0 -354 156q-133 152 -133 414zM260 496q0 -162 80 -267 q82 -106 219 -106q115 0 191 88q74 86 73 225q0 141 -75 219q-78 82 -203 82q-108 0 -197 -73q-88 -74 -88 -168z" />
<glyph unicode="7" d="M121 1174v157h868v-127l-594 -1204h-198l591 1174h-667z" />
<glyph unicode="8" d="M78 340q0 242 266 352q-215 104 -215 303q0 156 121 256q125 102 305 103q182 0 295 -97q109 -94 108 -233q0 -209 -221 -315q133 -49 203 -137.5t70 -202.5q0 -170 -133 -281q-131 -111 -336 -111q-207 0 -336 105q-127 102 -127 258zM276 356q0 -98 76 -170 q72 -70 193 -69.5t196.5 66t75.5 165.5q0 39 -14 86q-12 39 -41 72q-33 35 -68 57q-43 27 -102.5 47.5t-77.5 20.5q-20 0 -70 -25q-35 -18 -79 -53q-31 -25 -49.5 -55.5t-29 -67.5t-10.5 -74zM315 1008q0 -175 258 -240q205 63 205 236q0 86 -57 149.5t-170 63.5 q-106 0 -172 -60q-64 -57 -64 -149z" />
<glyph unicode="9" d="M84 879q0 190 133 333q131 141 340 141.5t332 -153.5q125 -156 125 -412q0 -358 -194.5 -583t-616.5 -225v155q12 -2 43 -2q236 0 385 125q147 123 182 354q-119 -143 -324 -143q-178 0 -292 117q-113 115 -113 293zM274 889q0 -125 72 -199q74 -78 191 -78q109 0 196 64 q86 61 86 139q0 184 -73.5 288.5t-204.5 104.5q-119 0 -191 -90q-76 -94 -76 -229z" />
<glyph unicode=":" horiz-adv-x="434" d="M106 111q0 59 37 96q39 39 90 39q55 0 93 -37q35 -35 34 -98q0 -57 -36 -95q-39 -39 -90.5 -39t-90.5 39q-37 38 -37 95zM109 825q0 61 34 97q39 39 93 39q55 0 92 -37q35 -35 34 -99q0 -59 -34 -94q-39 -39 -92.5 -39t-92.5 39q-34 35 -34 94z" />
<glyph unicode=";" horiz-adv-x="434" d="M33 -252q82 225 125 498l209 20q-94 -324 -201 -504zM123 825q0 59 37 97q39 39 90 39q55 0 92 -37q35 -35 35 -99q0 -57 -37 -94q-39 -39 -90 -39t-90 39q-37 37 -37 94z" />
<glyph unicode="&#x3c;" horiz-adv-x="1220" d="M133 485v119l952 486v-148l-796 -399l796 -396v-147z" />
<glyph unicode="=" horiz-adv-x="1220" d="M82 283v129h1057v-129h-1057zM82 690v129h1057v-129h-1057z" />
<glyph unicode="&#x3e;" horiz-adv-x="1220" d="M133 0v147l803 400l-803 395v148l954 -484v-123z" />
<glyph unicode="?" horiz-adv-x="860" d="M104 1317q129 86 308 86q166 0 260 -86t94 -219q0 -76 -33 -148q-34 -74 -147 -202q-66 -74 -94 -146q-27 -66 -27 -151l2 -54h-170q-6 71 -6 86q0 166 133 318q84 98 117 162q29 55 28 110q0 82 -51 127q-53 47 -145 47q-125 0 -215 -65zM252 110.5q0 59.5 37 96.5 t92 37t92 -37q35 -35 35 -96q0 -57 -37 -95q-39 -39 -92 -39t-92 39q-35 35 -35 94.5z" />
<glyph unicode="@" horiz-adv-x="1550" d="M90 625q0 326 215 553q213 225 547 225q270 0 444 -170q172 -168 172 -432q0 -219 -108 -346q-111 -129 -262 -129q-70 0 -113 43q-45 45 -51 137q-111 -180 -297 -180q-98 0 -162 71q-66 76 -65 191q0 197 141 338q143 143 348 143q131 0 229 -45l-38.5 -207.5 l-26.5 -146.5t-10 -54q-4 -20 -4 -69q0 -117 81.5 -117t149.5 100.5t68 260.5q0 229 -140 372q-139 141 -372 142q-264 0 -443 -187q-180 -190 -180 -481q0 -254 152 -406q154 -154 387 -153q182 0 315 74l33 -95q-158 -80 -371 -80q-268 0 -455 183q-184 180 -184 465z M551 598q0 -72 37 -115t102 -43q82 0 158 88t94 191l41 219q-49 16 -104 16q-137 0 -232 -104q-96 -107 -96 -252z" />
<glyph unicode="A" horiz-adv-x="1302" d="M51 0l484 1380h233l487 -1380h-204l-152 430h-504l-145 -430h-199zM434 578h426q-190 535 -217 641q-45 -168 -209 -641z" />
<glyph unicode="B" horiz-adv-x="1148" d="M158 4v1358q141 31 342 31q262 0 387 -97q123 -96 123 -249q0 -100 -62 -183q-59 -80 -174 -125q129 -33 209 -125t80 -221q0 -174 -141 -291q-139 -115 -476 -114q-112 0 -288 16zM348 143q43 -8 156 -8q169 0 264 68q94 68 94 194.5t-96 192.5q-98 68 -264 67h-154 v-514zM348 799h168q139 0 221 63q80 61 80 164q0 221 -303 221q-108 0 -166 -12v-436z" />
<glyph unicode="C" horiz-adv-x="1239" d="M76 678q0 319 207 522q205 203 542 203q213 0 346 -64l-45 -153q-135 59 -292 59q-256 0 -408 -151q-150 -150 -150 -412q0 -246 145.5 -395.5t401.5 -149.5q178 0 307 60l37 -150q-139 -70 -383 -70q-319 0 -513.5 188.5t-194.5 512.5z" />
<glyph unicode="D" horiz-adv-x="1421" d="M158 4v1358q195 31 401 31q408 0 596 -183q190 -184 191 -485q0 -338 -211 -539q-207 -199 -633 -198q-184 0 -344 16zM348 147q39 -8 189 -8q293 0 450.5 151.5t157.5 426.5q0 252 -149.5 389t-428.5 137q-129 0 -219 -18v-1078z" />
<glyph unicode="E" horiz-adv-x="1044" d="M158 0v1380h778v-157h-588v-424h555v-158h-555v-483h621v-158h-811z" />
<glyph unicode="F" horiz-adv-x="1036" d="M158 0v1380h776v-157h-586v-447h541v-158h-541v-618h-190z" />
<glyph unicode="G" horiz-adv-x="1378" d="M76 680q0 313 213 514t563 201q211 0 365 -66l-48 -153q-135 61 -323 61q-262 0 -416 -147.5t-154 -399.5q0 -250 149.5 -399.5t399.5 -149.5q172 0 248 39v398h-287v151h474v-663q-221 -80 -447 -80q-358 0 -547 194q-190 197 -190 500z" />
<glyph unicode="H" horiz-adv-x="1386" d="M158 0v1380h190v-573h690v573h191v-1380h-191v643h-690v-643h-190z" />
<glyph unicode="I" horiz-adv-x="505" d="M158 0v1380h190v-1380h-190z" />
<glyph unicode="J" horiz-adv-x="788" d="M8 12l29 154q74 -29 160 -29q141 0 200 84q57 82 58 264v895h190v-911q0 -492 -432 -492q-117 0 -205 35z" />
<glyph unicode="K" horiz-adv-x="1153" d="M158 0v1380h196v-663q47 70 545 663h238l-516 -585l557 -795h-226l-467 674l-137 -154v-520h-190z" />
<glyph unicode="L" horiz-adv-x="1003" d="M158 0v1380h190v-1220h610v-160h-800z" />
<glyph unicode="M" horiz-adv-x="1701" d="M123 0l96 1380h248q254 -698 295 -831q53 -168 88 -293q72 266 141 449l258 675h246l86 -1380h-186l-39 750q-6 129 -14.5 288.5t-8.5 163.5q-61 -201 -162 -477l-264 -715h-145q-289 836 -301 875q-41 131 -92 317q-18 -465 -29 -622l-37 -580h-180z" />
<glyph unicode="N" horiz-adv-x="1398" d="M158 0v1380h213l452 -690q152 -231 258 -446q-20 178 -20 561v575h178v-1380h-195l-448 692q-158 244 -272 463q12 -201 12 -563v-592h-178z" />
<glyph unicode="O" horiz-adv-x="1472" d="M76 676q0 319 188 524q187 203 479 203q293 0 473.5 -194.5t180.5 -503.5q0 -330 -188.5 -529t-481.5 -199q-289 0 -469 195q-182 199 -182 504zM274 682q0 -233 127 -391q129 -160 330 -160q211 0 336 158q127 162 127 407q0 236 -125 394q-127 160 -334 159 q-211 0 -336 -159q-125 -158 -125 -408z" />
<glyph unicode="P" horiz-adv-x="1128" d="M158 0v1364q162 29 362 29q260 0 391 -113t131 -295q0 -215 -149 -332q-152 -117 -395 -116q-106 0 -150 14v-551h-190zM348 705q55 -16 154 -17q168 0 258 76q92 76 92 213q0 129 -86 197q-88 70 -244 69q-104 0 -174 -14v-524z" />
<glyph unicode="Q" horiz-adv-x="1472" d="M76 674q0 324 188 528q186 201 484 201q289 0 469 -194.5t180 -503.5q0 -246 -107 -416q-109 -174 -301 -242v-8q252 -61 416 -88l-55 -156q-291 74 -553 162q-51 16 -88 20q-276 10 -455 199q-178 191 -178 498zM276 680q0 -233 127 -391t330 -158q211 0 336 158 q127 162 127 407q0 236 -125 394q-125 160 -330 159q-213 0 -340 -159q-125 -158 -125 -410z" />
<glyph unicode="R" horiz-adv-x="1140" d="M158 0v1362q162 31 360 31q272 0 400 -103q125 -100 124 -276q0 -125 -69 -215q-70 -92 -195 -135q150 -57 203 -281q84 -342 111 -383h-197q-29 49 -92 328q-33 143 -98.5 204.5t-182.5 61.5h-174v-594h-190zM348 737h191q143 0 227 70q86 70 86 186q0 125 -82 189 q-84 66 -238 65q-115 0 -184 -16v-494z" />
<glyph unicode="S" horiz-adv-x="1048" d="M88 70l49 157q154 -92 334 -92q133 0 213 61.5t80 168.5q0 94 -64 157q-59 59 -204 109q-193 66 -287 164q-92 94 -92 229q0 164 129 272q127 106 334 107q199 0 319 -70l-51 -153q-119 68 -275 67q-123 0 -194 -59q-70 -57 -70 -144q0 -88 59.5 -143t223.5 -115 q195 -70 280 -168q84 -96 84 -239q0 -178 -133 -289q-135 -113 -366 -113q-90 0 -203 27q-96 23 -166 66z" />
<glyph unicode="T" horiz-adv-x="1058" d="M-2 1221v159h1065v-159h-438v-1221h-191v1221h-436z" />
<glyph unicode="U" horiz-adv-x="1376" d="M158 582v798h190v-805q0 -213 88 -329q86 -115 246 -115q166 0 256 114.5t90 329.5v805h191v-792q0 -297 -142 -453q-141 -158 -403 -158q-252 0 -383 154q-133 156 -133 451z" />
<glyph unicode="V" horiz-adv-x="1185" d="M6 1380h207l260 -802q77 -237 117 -388q47 180 162 510l241 680h203l-510 -1380h-213z" />
<glyph unicode="W" horiz-adv-x="1783" d="M29 1380h202q238 -979 269 -1169h4q27 152 114 477l187 692h203l168 -698q74 -310 98 -467h4q34 194 111 473l186 692h194l-403 -1380h-201l-174 717q-77 313 -92 448h-4q-27 -158 -107 -448l-198 -717h-203z" />
<glyph unicode="X" horiz-adv-x="1218" d="M53 0l439 698l-422 682h223q291 -506 317 -555q10 31 324 555h223l-436 -673l446 -707h-223q-319 530 -348 573l-322 -573h-221z" />
<glyph unicode="Y" horiz-adv-x="1153" d="M27 1380h219q276 -528 340 -661q39 94 346 661h217l-479 -792v-588h-191v584z" />
<glyph unicode="Z" horiz-adv-x="1183" d="M63 0v109l791 1114h-723v157h973v-112l-787 -1110h799v-158h-1053z" />
<glyph unicode="[" horiz-adv-x="593" d="M168 -229v1632h385v-117h-238v-1399h238v-116h-385z" />
<glyph unicode="\" horiz-adv-x="722" d="M6 1403h148l571 -1485h-147z" />
<glyph unicode="]" horiz-adv-x="593" d="M41 -113h238v1399h-238v117h385v-1632h-385v116z" />
<glyph unicode="^" horiz-adv-x="1220" d="M121 385l422 946h135l422 -946h-150l-342 791l-340 -791h-147z" />
<glyph unicode="_" horiz-adv-x="1024" d="M0 -154h1024v-102h-1024v102z" />
<glyph unicode="`" horiz-adv-x="614" d="M39 1411h207l182 -297h-135z" />
<glyph unicode="a" horiz-adv-x="1021" d="M74 262q0 180 155 275q158 96 459 96v18q0 106 -57 164q-59 59 -172 59q-152 0 -271 -75l-43 125q145 90 342 90q195 0 293 -107q98 -108 99 -307v-362q0 -143 16 -238h-174l-23 127q-111 -150 -313 -150q-137 0 -225 84q-86 82 -86 201zM266 287q0 -80 47 -123 q49 -45 123 -45q109 0 182.5 67.5t73.5 151.5v164q-242 0 -332 -58q-94 -59 -94 -157z" />
<glyph unicode="b" horiz-adv-x="1210" d="M145 0q8 84 9 260v1198h194v-629q108 184 350 185q190 0 314 -142q121 -139 121 -362q0 -243 -136 -387q-135 -145 -327 -146q-233 0 -351 187l-8 -164h-166zM344 406q0 -111 82 -193q84 -84 205 -84q143 0 225 100q84 102 84 273q0 158 -84 260t-221 102 q-123 0 -207 -90t-84 -207v-161z" />
<glyph unicode="c" horiz-adv-x="952" d="M78 483q0 238 151 383q154 147 400 148q150 0 262 -56l-41 -145q-96 49 -219 49q-164 0 -260 -102q-98 -104 -99 -264q0 -166 101 -267q98 -98 252 -98q117 0 231 49l31 -143q-129 -59 -297 -60q-229 0 -370.5 141.5t-141.5 364.5z" />
<glyph unicode="d" horiz-adv-x="1198" d="M78 479q0 236 133 385.5t328 149.5q100 0 186 -41q83 -40 129 -111v596h190v-1198q0 -176 9 -260h-170l-15 176q-49 -95 -141 -147q-90 -51 -209 -52q-187 0 -313 142q-127 143 -127 360zM270 492q0 -157 80 -259t223 -102q109 0 195 80t86 215v158q0 125 -82 202.5 t-194 77.5q-139 0 -223.5 -102t-84.5 -270z" />
<glyph unicode="e" horiz-adv-x="1062" d="M78 479q0 229 131 381q131 154 354 154q201 0 314 -137q111 -135 110 -334q0 -55 -6 -86h-719q3 -160 98 -246q94 -86 248 -86q168 0 289 51l33 -133q-150 -66 -346 -66q-231 0 -368.5 137.5t-137.5 364.5zM264 594h539q0 129 -65.5 207t-188.5 78q-117 0 -193 -78 q-74 -76 -92 -207z" />
<glyph unicode="f" horiz-adv-x="620" d="M31 846v145h139v45q0 213 96 328q98 117 271 117q84 0 157 -29l-22 -147q-55 23 -119 22q-195 0 -195 -285v-51h244v-145h-242v-846h-190v846h-139z" />
<glyph unicode="g" horiz-adv-x="1187" d="M78 487q0 236 137 383q135 143 326 144q224 0 325 -172l8 149h168q-8 -80 -8 -268v-576q0 -324 -141 -450q-143 -127 -381 -127q-213 0 -346 86l47 145q131 -82 303 -82q158 0 244 88q86 89 86 259l-4 108q-109 -170 -328 -170q-188 0 -311 139q-125 141 -125 344z M270 498q0 -150 82 -250q80 -98 219 -98q111 0 191 79q82 82 82 203v162q0 113 -74 192.5t-197 79.5q-131 0 -217 -100q-86 -102 -86 -268z" />
<glyph unicode="h" horiz-adv-x="1175" d="M154 0v1458h190v-624h4q49 84 139 133q86 47 185 47q156 0 256 -111q102 -113 102 -321v-582h-190v561q0 139 -61.5 217t-174.5 78q-98 0 -178 -74q-82 -76 -82 -188v-594h-190z" />
<glyph unicode="i" horiz-adv-x="495" d="M127 1292q0 49 35 84t88 35q51 0 86 -35t35 -84q0 -51 -35 -86t-88 -35t-88 35q-33 33 -33 86zM154 0v991h190v-991h-190z" />
<glyph unicode="j" horiz-adv-x="518" d="M-96 -285q119 6 176 52q59 47 78 127q20 88 20 272v825h191v-897q0 -309 -127 -420q-123 -109 -318 -108zM152 1292q0 49 34.5 84t87.5 35q51 0 86 -35t35 -84q0 -51 -34.5 -86t-88 -35t-88.5 35q-32 33 -32 86z" />
<glyph unicode="k" horiz-adv-x="997" d="M154 0v1458h190l4 -917q33 47 94 114l293 336h232l-396 -405l453 -586h-236l-348 473l-96 -104v-369h-190z" />
<glyph unicode="l" horiz-adv-x="495" d="M154 0v1458h190v-1458h-190z" />
<glyph unicode="m" horiz-adv-x="1763" d="M145 991h166l15 -162q111 184 323 185q96 0 174 -53q77 -52 117 -148q123 201 340 201q147 0 244 -113q94 -109 94 -326v-575h-186v553q0 143 -58 225q-55 80 -162 80q-92 0 -161 -70q-72 -72 -72 -180v-608h-186v586q0 125 -55.5 198.5t-155.5 73.5q-94 0 -168 -80 t-74 -186v-592h-186v719q-1 176 -9 272z" />
<glyph unicode="n" horiz-adv-x="1175" d="M145 991h168l17 -168q47 88 137 139.5t201 51.5q154 0 258 -110.5t104 -321.5v-582h-190v561q0 139 -61.5 217t-174.5 78q-100 0 -182 -78q-78 -76 -78 -186v-592h-190v719q-1 176 -9 272z" />
<glyph unicode="o" horiz-adv-x="1167" d="M78 487q0 244 145 383q150 143 369 143.5t358 -141.5q139 -143 140 -366q0 -164 -66 -281q-68 -119 -188 -184q-119 -63 -258 -64q-217 0 -358.5 141.5t-141.5 368.5zM272 494q0 -162 88.5 -268.5t217.5 -106.5q135 0 223 106q90 109 90 275q0 156 -82 264t-225.5 108 t-227.5 -108t-84 -270z" />
<glyph unicode="p" horiz-adv-x="1210" d="M145 991h170l11 -172h4q123 195 368 195q186 0 310 -142q125 -143 125 -360q0 -248 -134 -389q-135 -145 -333 -146q-98 0 -187 41q-84 39 -131 117h-4v-541h-190v1072q-1 212 -9 325zM344 410q0 -121 84 -201q86 -82 201 -82q143 0 227 102.5t84 274.5q0 156 -84 258 q-82 100 -219 100q-84 0 -162 -51q-76 -49 -102 -123q-29 -76 -29 -119v-159z" />
<glyph unicode="q" horiz-adv-x="1196" d="M78 479q0 163 61 283q63 123 170 186q109 66 232 66q223 0 321 -174l6 151h185q-8 -98 -9 -270v-1127h-190v564q-106 -180 -342 -181q-184 0 -309 142q-125 139 -125 360zM270 492q0 -158 82 -263q80 -100 219 -100q123 0 203 88q80 90 80 193v176q0 121 -80 200 q-78 78 -196 78q-139 0 -223.5 -102t-84.5 -270z" />
<glyph unicode="r" horiz-adv-x="696" d="M145 991h168l13 -198q35 100 116 161q78 59 168 60q10 0 52 -4v-181q-27 6 -66 7q-102 0 -178 -82q-74 -80 -74 -230v-524h-190v676q-1 206 -9 315z" />
<glyph unicode="s" horiz-adv-x="841" d="M84 47l45 146q121 -74 250 -74q94 0 141 39q51 41 51 104.5t-41 102.5q-45 41 -145 73q-272 92 -272 281q0 127 96 211t258 84q150 0 254 -62l-47 -137q-106 59 -213 59q-78 0 -121 -36.5t-43 -96.5q0 -51 37 -88q33 -33 155 -78q147 -53 207 -120q61 -70 62 -176 q0 -135 -103 -218q-106 -84 -280 -84q-164 0 -291 70z" />
<glyph unicode="t" horiz-adv-x="700" d="M37 846v145h156v185l186 55v-240h264v-145h-264v-516q0 -104 32.5 -149.5t106.5 -45.5q66 0 109 12l8 -143q-68 -27 -170 -27q-272 0 -272 340v529h-156z" />
<glyph unicode="u" horiz-adv-x="1169" d="M147 418v573h191v-540q0 -315 227 -316q106 0 183 74q78 74 77 182v600h191v-717q0 -182 8 -274h-168l-16 168q-115 -190 -340 -191q-162 0 -258 113q-95 109 -95 328z" />
<glyph unicode="v" horiz-adv-x="1024" d="M27 991h206l211 -583q29 -78 76 -222q28 92 86 252l197 553h203l-404 -991h-186z" />
<glyph unicode="w" horiz-adv-x="1550" d="M37 991h194q195 -725 209 -815h4q14 88 254 815h162q221 -686 246 -815h4q27 145 72 301l149 514h189l-328 -991h-176q-160 489 -191 592q-20 68 -49 201h-4q-37 -168 -88 -316l-166 -477h-176z" />
<glyph unicode="x" horiz-adv-x="987" d="M14 0l365 508l-348 483h215l252 -368q43 78 243 368h209l-348 -477l359 -514h-218q-197 283 -264 391q-23 -49 -252 -391h-213z" />
<glyph unicode="y" horiz-adv-x="1001" d="M18 991h209l226 -590q28 -74 67 -190q39 133 62 199l202 581h205l-280 -708q-137 -342 -217 -467q-82 -127 -183 -191q-102 -63 -182 -78l-45 160q156 49 242 166t86 158q0 16 -13 47z" />
<glyph unicode="z" horiz-adv-x="909" d="M39 0v111l455 567l137 162h-553v151h788l-2 -117l-448 -561l-135 -161h593v-152h-835z" />
<glyph unicode="{" horiz-adv-x="593" d="M57 537v108q80 0 125 35q43 34 43 117q0 57 -16 167.5t-16 168.5q0 133 81 202q80 68 222 68h47v-119h-37q-84 0 -125 -43q-41 -45 -41 -133q0 -49 16 -147q14 -86 15 -148q0 -180 -152 -223q152 -37 152 -223q0 -51 -17 -156q-14 -80 -14 -143q0 -180 166 -181h37v-116 h-47q-303 0 -303 282q0 47 16 166t16 164q0 154 -168 154z" />
<glyph unicode="|" horiz-adv-x="503" d="M180 -512v2048h144v-2048h-144z" />
<glyph unicode="}" horiz-adv-x="593" d="M51 -113h37q166 0 166 181q0 63 -14 143q-16 104 -17 156q0 186 152 227q-152 41 -152 219q0 49 17 154q14 80 14 141q0 88 -41 133q-41 43 -125 43h-37v119h47q147 0 225 -69.5t78 -200.5q0 -47 -16 -168q-16 -119 -16 -168q0 -83 43 -117q45 -35 123 -35l2 -108 q-168 0 -168 -154q0 -45 16 -164t16 -166q0 -283 -303 -282h-47v116z" />
<glyph unicode="~" horiz-adv-x="1220" d="M92 426q0 164 72 242q70 76 178 75q63 0 121 -18q47 -14 172 -76q184 -86 254 -86q109 0 110 174h129q0 -127 -28 -190q-29 -66 -86 -96q-59 -33 -127 -33q-53 0 -125 20q-63 18 -174 72q-197 90 -244 90q-117 0 -123 -174h-129z" />
<glyph unicode="&#xa1;" horiz-adv-x="483" d="M115 866q0 59 36.5 96t90 37t90.5 -36.5t37 -96.5q0 -61 -35 -96q-37 -37 -92 -37q-53 0 -90 37t-37 96zM139 -397l31 970h145l31 -970h-207z" />
<glyph unicode="&#xa2;" d="M139 668q0 193 115 336q113 141 311 174v206h135v-202q121 -2 232 -54l-43 -143q-88 51 -221 51q-147 0 -244 -102q-94 -100 -94 -256q0 -160 92 -258q90 -96 237 -96q131 0 242 51l33 -137q-101 -52 -234 -62v-207h-135v209q-203 22 -313 154q-113 135 -113 336z" />
<glyph unicode="&#xa3;" d="M119 0v106q117 59 176 152q61 95 61 203q0 66 -10 137h-213v137h195q-23 139 -23 215q0 180 113 291q117 113 293 113q143 0 231 -51l-41 -146q-74 43 -188.5 43t-172 -65.5t-57.5 -190.5q0 -90 23 -209h303v-137h-285q4 -82 4 -94q0 -211 -153 -346h624v-158h-880z" />
<glyph unicode="&#xa4;" d="M63 1073l97 98l143 -157q96 84 240 84q147 0 241 -82l148 155l96 -98l-164 -145q74 -98 74 -242q0 -157 -74 -252l154 -151l-94 -97l-142 160q-98 -86 -243 -86q-147 0 -240 80l-137 -154l-94 97l149 143q-78 106 -78 248q0 152 82 254zM293 678q0 -129 74 -207 q74 -76 172 -76q109 0 178 76q72 78 71 213q0 117 -67 197q-70 82 -180 82q-109 0 -178.5 -82t-69.5 -203z" />
<glyph unicode="&#xa5;" d="M33 1331h205l305 -606l309 606h203l-377 -620h268v-105h-325v-147h325v-105h-325v-354h-181v354h-323v105h323v147h-323v105h270z" />
<glyph unicode="&#xa6;" horiz-adv-x="503" d="M180 356h144v-716h-144v716zM180 664v716h144v-716h-144z" />
<glyph unicode="&#xa7;" horiz-adv-x="1097" d="M125 690q0 143 151 240q-76 68 -75 174q0 133 108 211q113 82 281 82q166 0 295 -68l-45 -123q-115 66 -256 66q-96 0 -155.5 -41t-59.5 -109q0 -53 47 -96q43 -41 213 -94q203 -66 272 -141q72 -78 72 -185q0 -150 -135 -248q82 -74 82 -184q0 -152 -121 -231 q-117 -78 -281 -78q-209 0 -334 88l52 123q125 -84 280 -84q102 0 165.5 45t63.5 118.5t-57 118.5q-55 43 -194 91q-221 74 -295 147.5t-74 177.5zM281 717q0 -117 219 -195q193 -70 239 -96q76 61 76 154q0 126 -184 190q-205 70 -258 102q-92 -65 -92 -155z" />
<glyph unicode="&#xa8;" horiz-adv-x="614" d="M10 1245q0 45 31 76t76 31q41 0 71 -31q29 -29 29 -76t-29 -76q-31 -31 -73.5 -30.5t-73.5 31t-31 75.5zM395 1245q0 45 31 76t74 31t73 -31q29 -29 29 -76t-29 -76q-31 -31 -73 -30q-45 0 -76 30q-29 29 -29 76z" />
<glyph unicode="&#xa9;" horiz-adv-x="1386" d="M74 696q0 260 182 447q182 184 440 184t437 -184q180 -186 180 -447q0 -264 -180 -450q-178 -184 -436.5 -184.5t-440.5 184.5q-182 186 -182 450zM180 690q0 -229 149.5 -384.5t368.5 -155.5q215 0 363 157q150 160 149 389q0 225 -149 385q-147 158 -363 158 q-219 0 -368.5 -158t-149.5 -391zM354 684q0 170 117 274q119 106 274 107q152 0 226 -55l-25 -84q-86 49 -201 49q-135 0 -208.5 -78t-73.5 -207q0 -125 76 -207q74 -80 209 -80q126 0 208 56l25 -80q-96 -66 -252 -66q-172 0 -272 105q-103 106 -103 266z" />
<glyph unicode="&#xaa;" horiz-adv-x="731" d="M70 731q0 104 98 168q100 66 321 66v20q0 45 -38 84q-37 37 -115 37q-106 0 -180 -55l-35 92q104 68 244 67q266 0 266 -290v-213q0 -89 12 -160h-129l-12 86h-4q-86 -96 -213 -96q-100 0 -157.5 55t-57.5 139zM213 739q0 -45 35 -73.5t84 -28.5q76 0 119 49t43 82v104 q-166 0 -223.5 -37t-57.5 -96z" />
<glyph unicode="&#xab;" horiz-adv-x="880" d="M59 518l275 379h153l-278 -379l278 -381h-151zM406 518l274 379h151l-276 -379l279 -381h-154z" />
<glyph unicode="&#xac;" horiz-adv-x="1220" d="M82 692v129h1057v-575h-138v446h-919z" />
<glyph unicode="&#xad;" horiz-adv-x="636" d="M61 485v140h514v-140h-514z" />
<glyph unicode="&#xae;" horiz-adv-x="1044" d="M68 940q0 193 133 326t323.5 133t321.5 -133q133 -137 133 -326q0 -190 -133 -328q-133 -135 -321.5 -135t-323.5 135q-133 133 -133 328zM158 940q0 -162 108.5 -276.5t260 -114.5t259.5 115q106 113 106.5 274.5t-106.5 273.5q-109 115 -262 115q-150 0 -258 -114.5 t-108 -272.5zM354 672v514q84 12 146 12q209 0 209 -147q0 -90 -101 -127q70 -12 86 -125q14 -100 33 -127h-88q-12 12 -35 133q-14 88 -110 88h-56v-221h-84zM438 956h58q125 0 125 86q0 90 -123 91q-23 0 -60 -5v-172z" />
<glyph unicode="&#xaf;" horiz-adv-x="614" d="M74 1200v115h471v-115h-471z" />
<glyph unicode="&#xb0;" horiz-adv-x="665" d="M59 1124q0 119 80 199t199 80q121 0 199 -78q76 -76 75 -190q0 -121 -84 -199t-194 -78q-119 0 -197 77.5t-78 188.5zM178 1126q0 -72 45 -118q47 -49 113 -50q70 0 115 50q47 51 47 122q0 74 -43 123.5t-119 49.5q-72 0 -115 -51.5t-43 -125.5z" />
<glyph unicode="&#xb1;" horiz-adv-x="1220" d="M84 0v129h1055v-129h-1055zM84 649v129h459v396h137v-396h459v-129h-459v-407h-137v407h-459z" />
<glyph unicode="&#xb2;" horiz-adv-x="739" d="M92 547v82q291 256 340 325q53 76 53 139.5t-41 100.5q-43 39 -114 39q-88 0 -178 -64l-46 97q106 88 261 88q133 0 206.5 -67.5t73.5 -164.5q0 -82 -49 -168q-47 -82 -291 -288h355v-119h-570z" />
<glyph unicode="&#xb3;" horiz-adv-x="716" d="M74 596l39 106q92 -55 198 -55q80 0 131 41q49 40 50 92q0 70 -66 105t-156 35h-59v98h59q80 0 133 33q55 34 56 92q0 43 -35 71.5t-96 28.5q-96 0 -176 -55l-41 100q109 66 245 66q125 0 192.5 -55.5t67.5 -139.5q0 -59 -43 -108q-45 -51 -116 -80q89 -12 141 -68 q53 -57 53 -129q0 -102 -90 -168q-94 -70 -242 -69q-149 0 -245 59z" />
<glyph unicode="&#xb4;" horiz-adv-x="614" d="M203 1114l182 297h207l-254 -297h-135z" />
<glyph unicode="&#xb5;" horiz-adv-x="1169" d="M147 -406v1397h191v-555q0 -143 59.5 -221t171.5 -78q101 0 179 74t77 160v620h191v-717q0 -182 8 -274h-168l-16 170q-111 -190 -310 -190q-145 0 -213 114l7 -500h-177z" />
<glyph unicode="&#xb6;" horiz-adv-x="1079" d="M70 930q0 139 65.5 245.5t192.5 157.5q131 53 321 53q174 0 250 -18v-1468h-135v1355h-150v-1355h-135v639h-14q-147 0 -272 108q-123 108 -123 283z" />
<glyph unicode="&#xb7;" horiz-adv-x="434" d="M88 559q0 59 37 96q39 39 92 39q55 0 92 -37q35 -35 35 -98q0 -59 -37 -96t-92 -37q-53 0 -92 39q-35 35 -35 94z" />
<glyph unicode="&#xb8;" horiz-adv-x="614" d="M106 -373l31 88q57 -29 113 -28q88 0 88 63q0 72 -162 84l98 170h115l-65 -106q66 -8 102 -48q41 -41 41 -92q0 -82 -57.5 -125t-161.5 -43q-84 0 -142 37z" />
<glyph unicode="&#xb9;" horiz-adv-x="669" d="M127 1253l195 90h133v-796h-152l-4 665l-147 -69z" />
<glyph unicode="&#xba;" horiz-adv-x="745" d="M35 866q0 152 100.5 248t239.5 96q152 0 244 -92t92 -239q0 -164 -101 -252q-102 -90 -239 -90q-141 0 -240 94q-96 92 -96 235zM182 870q0 -98 58 -161q59 -66 135 -66q82 0 137 63.5t55 167.5q0 96 -51 162q-52 68 -141 68t-142 -68q-51 -66 -51 -166z" />
<glyph unicode="&#xbb;" horiz-adv-x="880" d="M47 897h152l276 -379l-276 -381h-150l279 381zM391 137l279 381l-279 379h150l278 -379l-276 -381h-152z" />
<glyph unicode="&#xbc;" horiz-adv-x="1599" d="M90 1253l195 90h133v-796h-152l-4 665l-147 -69zM297 -23l782 1377h123l-786 -1377h-119zM834 207v84l405 518h162v-498h125v-104h-125v-207h-144v207h-423zM989 311h268v242l3 127q-57 -94 -70 -111z" />
<glyph unicode="&#xbd;" horiz-adv-x="1599" d="M61 1253l195 90h133v-796h-151l-5 665l-147 -69zM258 -23l782 1377h121l-784 -1377h-119zM928 0v82q287 256 340 331.5t53 135.5q0 63 -41 100q-43 39 -115 39q-92 0 -176 -63l-45 96q106 88 258 88q133 0 207 -67.5t74 -163.5q0 -72 -43 -152t-295 -307h352v-119h-569z " />
<glyph unicode="&#xbe;" horiz-adv-x="1599" d="M61 596l39 104q90 -53 199 -53q80 0 131 41q49 40 49 92q0 66 -61.5 103t-159.5 37h-59v98h59q80 0 133 33q55 34 55 92q0 39 -32 71q-29 29 -99 29q-90 0 -176 -55l-41 100q109 66 246 66q125 0 192.5 -55.5t67.5 -139.5q0 -59 -43 -108.5t-117 -75.5v-4q89 -12 142 -68 q53 -57 53 -129q0 -100 -88 -168q-92 -70 -244 -69q-150 0 -246 59zM375 -23l784 1377h121l-784 -1377h-121zM858 207v84l404 518h161v-498h125v-104h-125v-207h-143v207h-422zM1014 311h266v242q0 53 2 127l-41 -66q-20 -35 -74 -102z" />
<glyph unicode="&#xbf;" horiz-adv-x="860" d="M121 -123q0 66 31 139q33 78 149 213q51 57 84 119q35 63 35 178l-2 54h170q6 -72 6 -84q0 -164 -133 -320q-86 -102 -113 -156q-31 -61 -31 -118q0 -80 51.5 -127t143.5 -47q125 0 217 67l51 -137q-129 -86 -307 -86q-163 0 -258 86q-94 86 -94 219zM373 866.5 q0 59.5 36.5 96t92.5 36.5q55 0 92 -36q35 -35 35 -96.5t-35 -96.5q-37 -37 -94 -37q-53 0 -90 37t-37 96.5z" />
<glyph unicode="&#xc0;" horiz-adv-x="1302" d="M51 0l484 1380h233l487 -1380h-204l-152 430h-504l-145 -430h-199zM434 578h426q-190 535 -217 641q-45 -168 -209 -641zM340 1729h230l188 -242h-154z" />
<glyph unicode="&#xc1;" horiz-adv-x="1302" d="M51 0l484 1380h233l487 -1380h-204l-152 430h-504l-145 -430h-199zM434 578h426q-190 535 -217 641q-45 -168 -209 -641zM699 1728h227l-262 -244h-156z" />
<glyph unicode="&#xc2;" horiz-adv-x="1302" d="M51 0l484 1380h233l487 -1380h-204l-152 430h-504l-145 -430h-199zM434 578h426q-190 535 -217 641q-45 -168 -209 -641zM592 1729h139l217 -244h-156l-133 149l-131 -149h-149z" />
<glyph unicode="&#xc3;" horiz-adv-x="1302" d="M51 0l484 1380h233l487 -1380h-204l-152 430h-504l-145 -430h-199zM434 578h426q-190 535 -217 641q-45 -168 -209 -641zM487 1495h-98q0 106 41 157q40 49 98 50q51 0 129 -41q72 -37 101 -37q31 0 41 16q16 25 18 70h96q0 -203 -141 -203q-51 0 -129 39q-80 39 -102 39 q-44 0 -54 -90z" />
<glyph unicode="&#xc4;" horiz-adv-x="1302" d="M51 0l484 1380h233l487 -1380h-204l-152 430h-504l-145 -430h-199zM434 578h426q-190 535 -217 641q-45 -168 -209 -641zM571 1612q0 -47 -29 -76q-31 -31 -73 -31q-45 0 -76 31t-31 76t31 75.5t76 30.5q41 0 71.5 -30.5t30.5 -75.5zM956 1612q0 -47 -29 -76 q-31 -31 -73 -31q-45 0 -76 31t-31 76t31 75.5t74 30.5t73.5 -30.5t30.5 -75.5z" />
<glyph unicode="&#xc5;" horiz-adv-x="1302" d="M51 0l477 1360q-98 41 -98 149q0 84 62 140q63 57 165 57q106 0 166 -53.5t60 -143.5q0 -113 -109 -153l479 -1356h-204l-152 430h-502l-145 -430h-199zM434 578h428l-153 434l-66 205q-23 -104 -59 -213zM545 1511q0 -47 30.5 -77.5t79.5 -30.5q51 0 82 30.5t31 82 t-30.5 82t-82.5 30.5q-49 0 -82 -33q-28 -29 -28 -84z" />
<glyph unicode="&#xc6;" horiz-adv-x="1679" d="M-4 0l653 1380h903v-157h-608l55 -426h533v-158h-508l63 -481h523v-158h-686l-64 483h-440l-227 -483h-197zM485 637h353q-72 567 -82 606q-47 -119 -88 -205z" />
<glyph unicode="&#xc7;" horiz-adv-x="1239" d="M76 678q0 319 207 522q205 203 542 203q213 0 346 -64l-47 -153q-131 59 -290 59q-256 0 -408 -151q-150 -150 -150 -412q0 -246 145.5 -395.5t401.5 -149.5q176 0 307 60l39 -152q-145 -68 -389 -68l-51 -77q66 -12 104.5 -51t38.5 -97q0 -78 -57 -121q-55 -41 -160 -41 q-78 0 -143 35l31 90q53 -29 112 -28q86 0 86 63q0 72 -159 84l86 152q-280 37 -437 221q-155 182 -155 471z" />
<glyph unicode="&#xc8;" horiz-adv-x="1044" d="M158 0v1380h778v-157h-588v-424h555v-158h-555v-483h621v-158h-811zM266 1729h230l188 -242h-154z" />
<glyph unicode="&#xc9;" horiz-adv-x="1044" d="M158 0v1380h778v-157h-588v-424h555v-158h-555v-483h621v-158h-811zM637 1728h227l-262 -244h-156z" />
<glyph unicode="&#xca;" horiz-adv-x="1044" d="M158 0v1380h778v-157h-588v-424h555v-158h-555v-483h621v-158h-811zM478 1729h139l217 -244h-156l-133 149l-131 -149h-149z" />
<glyph unicode="&#xcb;" horiz-adv-x="1044" d="M158 0v1380h778v-157h-588v-424h555v-158h-555v-483h621v-158h-811zM465 1612q0 -47 -29 -76q-31 -31 -73 -31q-45 0 -76 31t-31 76t31 75.5t76 30.5q41 0 71.5 -30.5t30.5 -75.5zM850 1612q0 -47 -29 -76q-31 -31 -73 -31q-45 0 -76 31t-31 76t31 75.5t74 30.5 t73.5 -30.5t30.5 -75.5z" />
<glyph unicode="&#xcc;" horiz-adv-x="505" d="M158 0v1380h190v-1380h-190zM-49 1729h230l188 -242h-154z" />
<glyph unicode="&#xcd;" horiz-adv-x="505" d="M158 0v1380h190v-1380h-190zM340 1728h227l-262 -244h-156z" />
<glyph unicode="&#xce;" horiz-adv-x="505" d="M158 0v1380h190v-1380h-190zM183 1729h139l217 -244h-156l-133 149l-131 -149h-149z" />
<glyph unicode="&#xcf;" horiz-adv-x="505" d="M158 0v1380h190v-1380h-190zM166 1612q0 -47 -29 -76q-31 -31 -73 -31q-45 0 -76 31t-31 76t31 75.5t76 30.5q41 0 71.5 -30.5t30.5 -75.5zM551 1612q0 -47 -29 -76q-31 -31 -73 -31q-45 0 -76 31t-31 76t31 75.5t74 30.5t73.5 -30.5t30.5 -75.5z" />
<glyph unicode="&#xd0;" horiz-adv-x="1431" d="M-2 623v153h170v590q193 31 401 31q403 0 594 -184.5t191 -487.5q0 -341 -209 -541q-211 -201 -635 -200q-182 0 -342 16v623h-170zM358 143q35 -8 189 -8q295 0 448 152q158 154 158 434q0 256 -147.5 391t-427.5 135q-131 0 -220 -18v-453h381v-153h-381v-480z" />
<glyph unicode="&#xd1;" horiz-adv-x="1398" d="M158 0v1380h213l452 -690q152 -231 258 -446q-20 178 -20 561v575h178v-1380h-195l-448 692q-158 244 -272 463q12 -201 12 -563v-592h-178zM555 1485h-98q0 106 41 157q40 49 98 50q51 0 129 -41q72 -37 101 -37q31 0 41 16q16 25 18 70h96q0 -203 -141 -203 q-51 0 -129 39q-80 39 -102 39q-44 0 -54 -90z" />
<glyph unicode="&#xd2;" horiz-adv-x="1472" d="M76 676q0 319 188 524q187 203 479 203q293 0 473.5 -194.5t180.5 -503.5q0 -330 -188.5 -529t-481.5 -199q-289 0 -469 195q-182 199 -182 504zM274 682q0 -233 127 -391q129 -160 330 -160q211 0 336 158q127 162 127 407q0 236 -125 394q-127 160 -334 159 q-211 0 -336 -159q-125 -158 -125 -408zM422 1729h230l188 -242h-154z" />
<glyph unicode="&#xd3;" horiz-adv-x="1472" d="M76 676q0 319 188 524q187 203 479 203q293 0 473.5 -194.5t180.5 -503.5q0 -330 -188.5 -529t-481.5 -199q-289 0 -469 195q-182 199 -182 504zM274 682q0 -233 127 -391q129 -160 330 -160q211 0 336 158q127 162 127 407q0 236 -125 394q-127 160 -334 159 q-211 0 -336 -159q-125 -158 -125 -408zM842 1728h227l-262 -244h-156z" />
<glyph unicode="&#xd4;" horiz-adv-x="1472" d="M76 676q0 319 188 524q187 203 479 203q293 0 473.5 -194.5t180.5 -503.5q0 -330 -188.5 -529t-481.5 -199q-289 0 -469 195q-182 199 -182 504zM274 682q0 -233 127 -391q129 -160 330 -160q211 0 336 158q127 162 127 407q0 236 -125 394q-127 160 -334 159 q-211 0 -336 -159q-125 -158 -125 -408zM666 1729h139l217 -244h-156l-133 149l-131 -149h-149z" />
<glyph unicode="&#xd5;" horiz-adv-x="1472" d="M76 676q0 319 188 524q187 203 479 203q293 0 473.5 -194.5t180.5 -503.5q0 -330 -188.5 -529t-481.5 -199q-289 0 -469 195q-182 199 -182 504zM274 682q0 -233 127 -391q129 -160 330 -160q211 0 336 158q127 162 127 407q0 236 -125 394q-127 160 -334 159 q-211 0 -336 -159q-125 -158 -125 -408zM573 1495h-98q0 106 41 157q40 49 98 50q51 0 129 -41q72 -37 101 -37q31 0 41 16q16 25 18 70h96q0 -203 -141 -203q-51 0 -129 39q-80 39 -102 39q-44 0 -54 -90z" />
<glyph unicode="&#xd6;" horiz-adv-x="1472" d="M76 676q0 319 188 524q187 203 479 203q293 0 473.5 -194.5t180.5 -503.5q0 -330 -188.5 -529t-481.5 -199q-289 0 -469 195q-182 199 -182 504zM274 682q0 -233 127 -391q129 -160 330 -160q211 0 336 158q127 162 127 407q0 236 -125 394q-127 160 -334 159 q-211 0 -336 -159q-125 -158 -125 -408zM649 1612q0 -47 -29 -76q-31 -31 -73 -31q-45 0 -76 31t-31 76t31 75.5t76 30.5q41 0 71.5 -30.5t30.5 -75.5zM1034 1612q0 -47 -29 -76q-31 -31 -73 -31q-45 0 -76 31t-31 76t31 75.5t74 30.5t73.5 -30.5t30.5 -75.5z" />
<glyph unicode="&#xd7;" horiz-adv-x="1220" d="M82 94l434 447l-434 444l94 94l434 -444l434 444l95 -94l-434 -444l434 -447l-95 -94l-434 444l-434 -444z" />
<glyph unicode="&#xd8;" horiz-adv-x="1472" d="M76 682q0 317 188 518q190 203 479 203q199 0 357 -109l127 168l114 -80l-131 -174q186 -199 187 -506q0 -330 -189 -528q-188 -197 -469 -197q-203 0 -360 109l-135 -178l-109 88l131 176q-190 203 -190 510zM270 692q0 -195 105 -366l631 833q-113 94 -267 94 q-213 0 -342 -159q-127 -158 -127 -402zM473 221q106 -94 262 -94q209 0 338 159.5t129 409.5q0 197 -100 353h-4z" />
<glyph unicode="&#xd9;" horiz-adv-x="1376" d="M158 582v798h190v-805q0 -213 88 -329q86 -115 246 -115q166 0 256 114.5t90 329.5v805h191v-792q0 -297 -142 -453q-141 -158 -403 -158q-252 0 -383 154q-133 156 -133 451zM391 1729h230l188 -242h-154z" />
<glyph unicode="&#xda;" horiz-adv-x="1376" d="M158 582v798h190v-805q0 -213 88 -329q86 -115 246 -115q166 0 256 114.5t90 329.5v805h191v-792q0 -297 -142 -453q-141 -158 -403 -158q-252 0 -383 154q-133 156 -133 451zM787 1728h227l-262 -244h-156z" />
<glyph unicode="&#xdb;" horiz-adv-x="1376" d="M158 582v798h190v-805q0 -213 88 -329q86 -115 246 -115q166 0 256 114.5t90 329.5v805h191v-792q0 -297 -142 -453q-141 -158 -403 -158q-252 0 -383 154q-133 156 -133 451zM633 1729h139l217 -244h-156l-133 149l-131 -149h-149z" />
<glyph unicode="&#xdc;" horiz-adv-x="1376" d="M158 582v798h190v-805q0 -213 88 -329q86 -115 246 -115q166 0 256 114.5t90 329.5v805h191v-792q0 -297 -142 -453q-141 -158 -403 -158q-252 0 -383 154q-133 156 -133 451zM604 1612q0 -47 -29 -76q-31 -31 -73 -31q-45 0 -76 31t-31 76t31 75.5t76 30.5 q41 0 71.5 -30.5t30.5 -75.5zM989 1612q0 -47 -29 -76q-31 -31 -73 -31q-45 0 -76 31t-31 76t31 75.5t74 30.5t73.5 -30.5t30.5 -75.5z" />
<glyph unicode="&#xdd;" horiz-adv-x="1153" d="M27 1380h219q276 -528 340 -661q39 94 346 661h217l-479 -792v-588h-191v584zM695 1728h227l-262 -244h-156z" />
<glyph unicode="&#xde;" horiz-adv-x="1126" d="M158 0v1380h188v-268q98 16 205 16q248 0 369 -108q123 -111 122 -275q0 -207 -143 -325q-141 -117 -389 -117q-82 0 -164 10v-313h-188zM346 469q49 -14 162 -14q164 0 254 71.5t90 198.5q0 123 -84 188.5t-236 65.5q-111 0 -186 -16v-494z" />
<glyph unicode="&#xdf;" horiz-adv-x="1157" d="M154 0v922q0 293 120.5 426t337.5 133q168 0 273 -97q106 -98 106 -256q0 -101 -49 -165q-145 -66 -145 -164q0 -49 22 -84q27 -39 80 -90q109 -109 139.5 -180.5t30.5 -137.5q0 -147 -102 -239q-98 -90 -273 -91q-137 0 -223 43l33 146q92 -41 174 -41q88 0 145 47 q55 45 56 121q0 57 -23 100q-27 47 -86 103q-104 98 -133 155q-31 61 -31 121q0 158 182 254q18 37 19 84q0 102 -57.5 161.5t-157.5 59.5q-127 0 -189 -98q-59 -94 -59 -299v-934h-190z" />
<glyph unicode="&#xe0;" horiz-adv-x="1021" d="M74 262q0 180 155 275q158 96 459 96v18q0 106 -57 164q-59 59 -172 59q-152 0 -271 -75l-43 125q145 90 342 90q195 0 293 -107q98 -108 99 -307v-362q0 -143 16 -238h-174l-23 127q-111 -150 -313 -150q-137 0 -225 84q-86 82 -86 201zM266 287q0 -80 47 -123 q49 -45 123 -45q109 0 182.5 67.5t73.5 151.5v164q-242 0 -332 -58q-94 -59 -94 -157zM205 1411h207l182 -297h-135z" />
<glyph unicode="&#xe1;" horiz-adv-x="1021" d="M74 262q0 180 155 275q158 96 459 96v18q0 106 -57 164q-59 59 -172 59q-152 0 -271 -75l-43 125q145 90 342 90q195 0 293 -107q98 -108 99 -307v-362q0 -143 16 -238h-174l-23 127q-111 -150 -313 -150q-137 0 -225 84q-86 82 -86 201zM266 287q0 -80 47 -123 q49 -45 123 -45q109 0 182.5 67.5t73.5 151.5v164q-242 0 -332 -58q-94 -59 -94 -157zM400 1114l182 297h207l-254 -297h-135z" />
<glyph unicode="&#xe2;" horiz-adv-x="1021" d="M74 262q0 180 155 275q158 96 459 96v18q0 106 -57 164q-59 59 -172 59q-152 0 -271 -75l-43 125q145 90 342 90q195 0 293 -107q98 -108 99 -307v-362q0 -143 16 -238h-174l-23 127q-111 -150 -313 -150q-137 0 -225 84q-86 82 -86 201zM266 287q0 -80 47 -123 q49 -45 123 -45q109 0 182.5 67.5t73.5 151.5v164q-242 0 -332 -58q-94 -59 -94 -157zM240 1114l197 297h129l200 -297h-143l-125 195l-119 -195h-139z" />
<glyph unicode="&#xe3;" horiz-adv-x="1021" d="M74 262q0 180 155 275q158 96 459 96v18q0 106 -57 164q-59 59 -172 59q-152 0 -271 -75l-43 125q145 90 342 90q195 0 293 -107q98 -108 99 -307v-362q0 -143 16 -238h-174l-23 127q-111 -150 -313 -150q-137 0 -225 84q-86 82 -86 201zM266 287q0 -80 47 -123 q49 -45 123 -45q109 0 182.5 67.5t73.5 151.5v164q-242 0 -332 -58q-94 -59 -94 -157zM248 1151q0 102 35 154q37 55 100 55q45 0 134 -47q63 -35 94 -35q47 0 53 88h94q0 -203 -139 -203q-51 0 -129 45q-63 35 -92 35q-47 0 -53 -92h-97z" />
<glyph unicode="&#xe4;" horiz-adv-x="1021" d="M74 262q0 180 155 275q158 96 459 96v18q0 106 -57 164q-59 59 -172 59q-152 0 -271 -75l-43 125q145 90 342 90q195 0 293 -107q98 -108 99 -307v-362q0 -143 16 -238h-174l-23 127q-111 -150 -313 -150q-137 0 -225 84q-86 82 -86 201zM266 287q0 -80 47 -123 q49 -45 123 -45q109 0 182.5 67.5t73.5 151.5v164q-242 0 -332 -58q-94 -59 -94 -157zM215 1245q0 45 31 76t76 31q41 0 71 -31q29 -29 29 -76t-29 -76q-31 -31 -73.5 -30.5t-73.5 31t-31 75.5zM600 1245q0 45 31 76t74 31t73 -31q29 -29 29 -76t-29 -76q-31 -31 -73 -30 q-45 0 -76 30q-29 29 -29 76z" />
<glyph unicode="&#xe5;" horiz-adv-x="1021" d="M74 262q0 180 155 275q158 96 459 96v18q0 106 -57 164q-59 59 -172 59q-152 0 -271 -75l-43 125q145 90 342 90q195 0 293 -107q98 -108 99 -307v-362q0 -143 16 -238h-174l-23 127q-111 -150 -313 -150q-137 0 -225 84q-86 82 -86 201zM266 287q0 -80 47 -123 q49 -45 123 -45q109 0 182.5 67.5t73.5 151.5v164q-242 0 -332 -58q-94 -59 -94 -157zM269 1286q0 84 59 139q58 55 154 56q92 0 151 -56q57 -55 58 -139q0 -82 -60 -135q-61 -55 -149 -55q-92 0 -154 55q-59 53 -59 135zM586 1288q0 49 -29 80q-31 33 -78 33t-73 -33 q-29 -35 -29 -82t29 -78q31 -33 74 -32q45 0 77 32q29 29 29 80z" />
<glyph unicode="&#xe6;" horiz-adv-x="1638" d="M74 260q0 164 149 264q145 96 469 97v38q0 78 -59 148q-59 68 -176 67q-150 0 -269 -77l-45 125q154 92 324 92q258 0 338 -209q117 209 356 209q193 0 297 -140q104 -137 105 -321q0 -53 -7 -82h-686q0 -174 92.5 -260t231.5 -86q166 0 281 57l34 -135 q-139 -70 -338 -70q-135 0 -237 58q-106 59 -158 162q-55 -109 -151 -162q-104 -57 -230 -58q-147 0 -235 82q-86 80 -86 201zM264 276q0 -74 49 -116.5t125 -42.5q111 0 184.5 67.5t73.5 171.5v138q-254 0 -342 -60q-90 -60 -90 -158zM870 606h510q0 115 -65 197 q-63 78 -174 78q-115 0 -189 -80q-76 -82 -82 -195z" />
<glyph unicode="&#xe7;" horiz-adv-x="952" d="M78 485q0 236 151 381q154 147 402 148q147 0 260 -56l-41 -145q-96 49 -219 49q-164 0 -260 -102q-98 -104 -98.5 -264t100.5 -265q98 -100 254 -100q119 0 229 49l35 -143q-115 -53 -279 -57l-49 -80q65 -9 105 -50q39 -39 39 -92q0 -82 -60 -125q-58 -43 -160 -43 q-83 0 -141 37l31 90q49 -31 110 -30q90 0 91 63q0 72 -162 84l86 152q-199 27 -311.5 163.5t-112.5 335.5z" />
<glyph unicode="&#xe8;" horiz-adv-x="1062" d="M78 479q0 229 131 381q131 154 354 154q201 0 314 -137q111 -135 110 -334q0 -55 -6 -86h-719q3 -160 98 -246q94 -86 248 -86q168 0 289 51l33 -133q-150 -66 -346 -66q-231 0 -368.5 137.5t-137.5 364.5zM264 594h539q0 129 -65.5 207t-188.5 78q-117 0 -193 -78 q-74 -76 -92 -207zM289 1411h207l182 -297h-135z" />
<glyph unicode="&#xe9;" horiz-adv-x="1062" d="M78 479q0 229 131 381q131 154 354 154q201 0 314 -137q111 -135 110 -334q0 -55 -6 -86h-719q3 -160 98 -246q94 -86 248 -86q168 0 289 51l33 -133q-150 -66 -346 -66q-231 0 -368.5 137.5t-137.5 364.5zM264 594h539q0 129 -65.5 207t-188.5 78q-117 0 -193 -78 q-74 -76 -92 -207zM254 1114l182 297h207l-254 -297h-135z" />
<glyph unicode="&#xea;" horiz-adv-x="1062" d="M78 479q0 229 131 381q131 154 354 154q201 0 314 -137q111 -135 110 -334q0 -55 -6 -86h-719q3 -160 98 -246q94 -86 248 -86q168 0 289 51l33 -133q-150 -66 -346 -66q-231 0 -368.5 137.5t-137.5 364.5zM264 594h539q0 129 -65.5 207t-188.5 78q-117 0 -193 -78 q-74 -76 -92 -207zM295 1114l197 297h129l200 -297h-143l-125 195l-119 -195h-139z" />
<glyph unicode="&#xeb;" horiz-adv-x="1062" d="M78 479q0 229 131 381q131 154 354 154q201 0 314 -137q111 -135 110 -334q0 -55 -6 -86h-719q3 -160 98 -246q94 -86 248 -86q168 0 289 51l33 -133q-150 -66 -346 -66q-231 0 -368.5 137.5t-137.5 364.5zM264 594h539q0 129 -65.5 207t-188.5 78q-117 0 -193 -78 q-74 -76 -92 -207zM272 1245q0 45 31 76t76 31q41 0 71 -31q29 -29 29 -76t-29 -76q-31 -31 -73.5 -30.5t-73.5 31t-31 75.5zM657 1245q0 45 31 76t74 31t73 -31q29 -29 29 -76t-29 -76q-31 -31 -73 -30q-45 0 -76 30q-29 29 -29 76z" />
<glyph unicode="&#xec;" horiz-adv-x="495" d="M344 0h-190v991h190v-991zM-6 1411h207l182 -297h-135z" />
<glyph unicode="&#xed;" horiz-adv-x="495" d="M344 0h-190v991h190v-991zM158 1114l182 297h207l-254 -297h-135z" />
<glyph unicode="&#xee;" horiz-adv-x="495" d="M344 0h-190v991h190v-991zM-12 1114l197 297h129l200 -297h-143l-125 195l-119 -195h-139z" />
<glyph unicode="&#xef;" horiz-adv-x="495" d="M344 0h-190v991h190v-991zM-47 1245q0 45 31 76t76 31q41 0 71 -31q29 -29 29 -76t-29 -76q-31 -31 -73.5 -30.5t-73.5 31t-31 75.5zM338 1245q0 45 31 76t74 31t73 -31q29 -29 29 -76t-29 -76q-31 -31 -73 -30q-45 0 -76 30q-29 29 -29 76z" />
<glyph unicode="&#xf0;" horiz-adv-x="1150" d="M80 481q0 225 141 367q143 143 336 143q143 0 244 -86q-100 160 -250 266l-303 -137l-41 94l244 113q-94 63 -220 117l80 119q176 -76 305 -164l273 125l45 -92l-223 -103q360 -287 360 -723q0 -254 -141 -397q-141 -145 -359 -146q-215 0 -352 142q-139 143 -139 362z M274 485q0 -158 86 -262t209 -104q137 0 219 102q84 106 84 277q0 207 -90 286q-86 78 -207 78q-137 0 -219 -112.5t-82 -264.5z" />
<glyph unicode="&#xf1;" horiz-adv-x="1175" d="M145 991h168l17 -168q47 88 137 139.5t201 51.5q154 0 258 -110.5t104 -321.5v-582h-190v561q0 139 -61.5 217t-174.5 78q-100 0 -182 -78q-78 -76 -78 -186v-592h-190v719q-1 176 -9 272zM336 1151q0 102 35 154q37 55 100 55q45 0 134 -47q63 -35 94 -35q47 0 53 88h94 q0 -203 -139 -203q-51 0 -129 45q-63 35 -92 35q-47 0 -53 -92h-97z" />
<glyph unicode="&#xf2;" horiz-adv-x="1167" d="M78 487q0 244 145 383q150 143 369 143.5t358 -141.5q139 -143 140 -366q0 -164 -66 -281q-68 -119 -188 -184q-119 -63 -258 -64q-217 0 -358.5 141.5t-141.5 368.5zM272 494q0 -162 88.5 -268.5t217.5 -106.5q135 0 223 106q90 109 90 275q0 156 -82 264t-225.5 108 t-227.5 -108t-84 -270zM309 1411h207l182 -297h-135z" />
<glyph unicode="&#xf3;" horiz-adv-x="1167" d="M78 487q0 244 145 383q150 143 369 143.5t358 -141.5q139 -143 140 -366q0 -164 -66 -281q-68 -119 -188 -184q-119 -63 -258 -64q-217 0 -358.5 141.5t-141.5 368.5zM272 494q0 -162 88.5 -268.5t217.5 -106.5q135 0 223 106q90 109 90 275q0 156 -82 264t-225.5 108 t-227.5 -108t-84 -270zM473 1114l182 297h207l-254 -297h-135z" />
<glyph unicode="&#xf4;" horiz-adv-x="1167" d="M78 487q0 244 145 383q150 143 369 143.5t358 -141.5q139 -143 140 -366q0 -164 -66 -281q-68 -119 -188 -184q-119 -63 -258 -64q-217 0 -358.5 141.5t-141.5 368.5zM272 494q0 -162 88.5 -268.5t217.5 -106.5q135 0 223 106q90 109 90 275q0 156 -82 264t-225.5 108 t-227.5 -108t-84 -270zM321 1114l197 297h129l200 -297h-143l-125 195l-119 -195h-139z" />
<glyph unicode="&#xf5;" horiz-adv-x="1167" d="M78 487q0 244 145 383q150 143 369 143.5t358 -141.5q139 -143 140 -366q0 -164 -66 -281q-68 -119 -188 -184q-119 -63 -258 -64q-217 0 -358.5 141.5t-141.5 368.5zM272 494q0 -162 88.5 -268.5t217.5 -106.5q135 0 223 106q90 109 90 275q0 156 -82 264t-225.5 108 t-227.5 -108t-84 -270zM329 1151q0 102 35 154q37 55 100 55q45 0 134 -47q63 -35 94 -35q47 0 53 88h94q0 -203 -139 -203q-51 0 -129 45q-63 35 -92 35q-47 0 -53 -92h-97z" />
<glyph unicode="&#xf6;" horiz-adv-x="1167" d="M78 487q0 244 145 383q150 143 369 143.5t358 -141.5q139 -143 140 -366q0 -164 -66 -281q-68 -119 -188 -184q-119 -63 -258 -64q-217 0 -358.5 141.5t-141.5 368.5zM272 494q0 -162 88.5 -268.5t217.5 -106.5q135 0 223 106q90 109 90 275q0 156 -82 264t-225.5 108 t-227.5 -108t-84 -270zM286 1245q0 45 31 76t76 31q41 0 71 -31q29 -29 29 -76t-29 -76q-31 -31 -73.5 -30.5t-73.5 31t-31 75.5zM671 1245q0 45 31 76t74 31t73 -31q29 -29 29 -76t-29 -76q-31 -31 -73 -30q-45 0 -76 30q-29 29 -29 76z" />
<glyph unicode="&#xf7;" horiz-adv-x="1220" d="M80 483v129h1057v-129h-1057zM496 188.5q0 49.5 32 85.5q31 33 82.5 33t81.5 -33q31 -34 31 -86t-31 -86q-31 -33 -84 -32q-49 0 -80 32q-32 37 -32 86.5zM498 907q0 49 32 86q31 33 82.5 33t81.5 -33q31 -34 31 -86q0 -49 -33 -86q-31 -33 -82 -33t-82 35q-30 33 -30 84 z" />
<glyph unicode="&#xf8;" horiz-adv-x="1167" d="M78 489q0 238 143.5 381.5t364.5 143.5q150 0 262 -70l90 125l84 -57l-90 -127q158 -152 158 -381q0 -244 -147.5 -385.5t-358.5 -141.5q-150 0 -262 70l-95 -129l-75 64l88 122q-162 147 -162 385zM266 494q0 -141 74 -246l422 567q-72 57 -178 57q-145 0 -232 -108 q-86 -107 -86 -270zM412 174q63 -55 168 -55q139 0 233 106q92 104 92 273q0 138 -74 239z" />
<glyph unicode="&#xf9;" horiz-adv-x="1169" d="M147 418v573h191v-540q0 -315 227 -316q106 0 183 74q78 74 77 182v600h191v-717q0 -182 8 -274h-168l-16 168q-115 -190 -340 -191q-162 0 -258 113q-95 109 -95 328zM309 1411h207l182 -297h-135z" />
<glyph unicode="&#xfa;" horiz-adv-x="1169" d="M147 418v573h191v-540q0 -315 227 -316q106 0 183 74q78 74 77 182v600h191v-717q0 -182 8 -274h-168l-16 168q-115 -190 -340 -191q-162 0 -258 113q-95 109 -95 328zM494 1114l182 297h207l-254 -297h-135z" />
<glyph unicode="&#xfb;" horiz-adv-x="1169" d="M147 418v573h191v-540q0 -315 227 -316q106 0 183 74q78 74 77 182v600h191v-717q0 -182 8 -274h-168l-16 168q-115 -190 -340 -191q-162 0 -258 113q-95 109 -95 328zM321 1114l197 297h129l200 -297h-143l-125 195l-119 -195h-139z" />
<glyph unicode="&#xfc;" horiz-adv-x="1169" d="M147 418v573h191v-540q0 -315 227 -316q106 0 183 74q78 74 77 182v600h191v-717q0 -182 8 -274h-168l-16 168q-115 -190 -340 -191q-162 0 -258 113q-95 109 -95 328zM293 1245q0 45 31 76t76 31q41 0 71 -31q29 -29 29 -76t-29 -76q-31 -31 -73.5 -30.5t-73.5 31 t-31 75.5zM678 1245q0 45 31 76t74 31t73 -31q29 -29 29 -76t-29 -76q-31 -31 -73 -30q-45 0 -76 30q-29 29 -29 76z" />
<glyph unicode="&#xfd;" horiz-adv-x="1001" d="M18 991h209l226 -590q28 -74 67 -190q39 133 62 199l202 581h205l-280 -708q-137 -342 -217 -467q-82 -127 -183 -191q-102 -63 -182 -78l-45 160q156 49 242 166t86 158q0 16 -13 47zM424 1114l182 297h207l-254 -297h-135z" />
<glyph unicode="&#xfe;" horiz-adv-x="1210" d="M154 -406v1778h190l4 -538q117 180 348 180q184 0 312 -142q125 -139 125 -362q0 -164 -60 -281q-63 -125 -170 -186q-113 -66 -237 -66q-207 0 -322 158v-541h-190zM344 395q0 -47 31 -112.5t100.5 -110.5t159.5 -45q137 0 221 102.5t84 276.5q0 154 -84 256 q-82 100 -215 100q-135 0 -215 -92q-82 -94 -82 -201v-174z" />
<glyph unicode="&#xff;" horiz-adv-x="1001" d="M18 991h209l226 -590q28 -74 67 -190q39 133 62 199l202 581h205l-280 -708q-137 -342 -217 -467q-82 -127 -183 -191q-102 -63 -182 -78l-45 160q156 49 242 166t86 158q0 16 -13 47zM229 1245q0 45 31 76t76 31q41 0 71 -31q29 -29 29 -76t-29 -76q-31 -31 -73.5 -30.5 t-73.5 31t-31 75.5zM614 1245q0 45 31 76t74 31t73 -31q29 -29 29 -76t-29 -76q-31 -31 -73 -30q-45 0 -76 30q-29 29 -29 76z" />
<glyph unicode="&#x131;" horiz-adv-x="495" d="M344 0h-190v991h190v-991z" />
<glyph unicode="&#x152;" horiz-adv-x="1904" d="M76 678q0 330 194 528q193 197 508 197q43 0 191 -10q111 -12 139 -13h684v-157h-588v-426h555v-158h-555v-481h621v-158h-735q-43 0 -142 -10q-100 -12 -180 -13q-315 0 -503.5 195t-188.5 506zM276 686q0 -248 141.5 -401.5t389.5 -153.5q127 0 207 29v1059 q-92 31 -228 30q-231 0 -370.5 -155.5t-139.5 -407.5z" />
<glyph unicode="&#x153;" horiz-adv-x="1828" d="M78 489q0 233 139 379t354 146q131 0 235.5 -61.5t156.5 -174.5q59 117 155 176q94 59 217 60q203 0 312 -137q106 -133 106 -332q0 -58 -6 -86h-694q0 -147 94 -242q92 -92 242 -92q147 0 276 57l37 -135q-137 -70 -336 -70q-285 0 -408 234q-55 -113 -161 -174 q-104 -59 -238 -60q-211 0 -346 141.5t-135 370.5zM274 494q0 -162 86 -268.5t215 -106.5q133 0 216 102q84 106 83 275q0 163 -79 270q-80 106 -220 106q-141 0 -221 -108q-80 -107 -80 -270zM1049 596h518q0 129 -64 205q-66 78 -184 78q-111 0 -184.5 -80t-85.5 -203z " />
<glyph unicode="&#x178;" horiz-adv-x="1153" d="M27 1380h219q276 -528 340 -661q39 94 346 661h217l-479 -792v-588h-191v584zM493 1612q0 -47 -29 -76q-31 -31 -73 -31q-45 0 -76 31t-31 76t31 75.5t76 30.5q41 0 71.5 -30.5t30.5 -75.5zM878 1612q0 -47 -29 -76q-31 -31 -73 -31q-45 0 -76 31t-31 76t31 75.5t74 30.5 t73.5 -30.5t30.5 -75.5z" />
<glyph unicode="&#x2c6;" horiz-adv-x="614" d="M45 1114l197 297h129l200 -297h-143l-125 195l-119 -195h-139z" />
<glyph unicode="&#x2da;" horiz-adv-x="819" d="M199 1286q0 84 59 139q58 55 154 56q92 0 151 -56q57 -55 58 -139q0 -82 -60 -135q-61 -55 -149 -55q-92 0 -154 55q-59 53 -59 135zM516 1288q0 49 -29 80q-31 33 -78 33t-73 -33q-29 -35 -29 -82t29 -78q31 -33 74 -32q45 0 77 32q29 29 29 80z" />
<glyph unicode="&#x2dc;" horiz-adv-x="614" d="M53 1151q0 102 35 154q37 55 100 55q45 0 134 -47q63 -35 94 -35q47 0 53 88h94q0 -203 -139 -203q-51 0 -129 45q-63 35 -92 35q-47 0 -53 -92h-97z" />
<glyph unicode="&#x2000;" horiz-adv-x="864" />
<glyph unicode="&#x2001;" horiz-adv-x="1728" />
<glyph unicode="&#x2002;" horiz-adv-x="864" />
<glyph unicode="&#x2003;" horiz-adv-x="1728" />
<glyph unicode="&#x2004;" horiz-adv-x="575" />
<glyph unicode="&#x2005;" horiz-adv-x="432" />
<glyph unicode="&#x2006;" horiz-adv-x="286" />
<glyph unicode="&#x2007;" horiz-adv-x="286" />
<glyph unicode="&#x2008;" horiz-adv-x="215" />
<glyph unicode="&#x2009;" horiz-adv-x="344" />
<glyph unicode="&#x200a;" horiz-adv-x="94" />
<glyph unicode="&#x2010;" horiz-adv-x="636" d="M61 485v140h514v-140h-514z" />
<glyph unicode="&#x2011;" horiz-adv-x="636" d="M61 485v140h514v-140h-514z" />
<glyph unicode="&#x2012;" horiz-adv-x="636" d="M61 485v140h514v-140h-514z" />
<glyph unicode="&#x2013;" horiz-adv-x="1024" d="M61 455v127h902v-127h-902z" />
<glyph unicode="&#x2014;" horiz-adv-x="2048" d="M61 455v127h1926v-127h-1926z" />
<glyph unicode="&#x2018;" horiz-adv-x="438" d="M74 913q92 313 194 494l123 12q-83 -233 -123 -485z" />
<glyph unicode="&#x2019;" horiz-adv-x="438" d="M74 913q83 233 123 486l194 20q-92 -313 -194 -493z" />
<glyph unicode="&#x201a;" horiz-adv-x="438" d="M41 -238q83 233 123 486l194 20q-92 -313 -194 -493z" />
<glyph unicode="&#x201c;" horiz-adv-x="751" d="M72 913q90 311 196 494l121 12q-76 -213 -121 -485zM387 913q88 309 195 494l123 12q-83 -233 -123 -485z" />
<glyph unicode="&#x201d;" horiz-adv-x="751" d="M72 913q83 233 123 486l194 20q-86 -301 -194 -493zM387 913q76 213 121 486l197 20q-90 -311 -197 -493z" />
<glyph unicode="&#x201e;" horiz-adv-x="755" d="M41 -238q83 233 123 486l194 20q-86 -301 -194 -493zM356 -238q76 213 121 486l197 20q-90 -311 -197 -493z" />
<glyph unicode="&#x2022;" horiz-adv-x="591" d="M76 704.5q0 92.5 63 155.5q66 66 158 66t158 -66q63 -63 63 -155.5t-63.5 -156t-157.5 -63.5t-157.5 63.5t-63.5 156z" />
<glyph unicode="&#x2026;" horiz-adv-x="2048" d="M213 111q0 59 37 96q39 39 92 39q55 0 92 -37q35 -35 35 -98q0 -57 -37 -95q-39 -39 -92 -39q-51 0 -90 39q-37 38 -37 95zM893 111q0 59 37 96q39 39 92 39q55 0 92 -37q35 -35 35 -98q0 -57 -37 -95q-39 -39 -92 -39q-51 0 -90 39q-37 38 -37 95zM1573 111q0 59 37 96 q39 39 92 39q55 0 92 -37q35 -35 35 -98q0 -57 -37 -95q-39 -39 -92 -39q-51 0 -90 39q-37 38 -37 95z" />
<glyph unicode="&#x202f;" horiz-adv-x="344" />
<glyph unicode="&#x2039;" horiz-adv-x="536" d="M59 518l275 379h151l-276 -379l278 -381h-151z" />
<glyph unicode="&#x203a;" horiz-adv-x="536" d="M47 897h152l276 -379l-276 -381h-150l277 381z" />
<glyph unicode="&#x205f;" horiz-adv-x="432" />
<glyph unicode="&#x20ac;" d="M18 508v106h119v29q0 8 1 23.5t1 21.5q0 31 2 45h-123v107h140q18 100 61 188q43 86 107 150q84 84 186 129q106 47 236 47q100 0 170 -21q76 -23 118 -45l-43 -143q-35 20 -104 41q-55 16 -135 16q-174 0 -283 -115q-39 -37 -74 -108q-29 -61 -45 -139h592v-107h-612 q-4 -29 -4 -41v-43v-35h616v-106h-600q12 -80 41 -148q25 -59 72 -108q57 -59 133 -90q72 -29 164 -29q41 0 82 6q37 6 71 19q59 23 62 22l45 23l37 -137q-53 -35 -131 -62t-187 -27q-131 0 -246 50q-113 49 -192 141q-117 129 -148 340h-129z" />
<glyph unicode="&#x2122;" horiz-adv-x="1685" d="M29 1270v110h641v-110h-256v-705h-131v705h-254zM700 565l62 815h174l156 -428l65 -213q39 158 57 209l160 432h168l62 -815h-129q-35 506 -35 553l-8 158q-45 -170 -76 -252l-164 -446h-100l-166 475l-66 223l-4 -178l-33 -533h-123z" />
<glyph unicode="&#xf100;" horiz-adv-x="614" d="M289 1708h227l-262 -244h-156z" />
<glyph unicode="&#xf101;" horiz-adv-x="614" d="M219 1612q0 -47 -29 -76q-31 -31 -73 -31q-45 0 -76 31t-31 76t31 75.5t76 30.5q41 0 71.5 -30.5t30.5 -75.5zM604 1612q0 -47 -29 -76q-31 -31 -73 -31q-45 0 -76 31t-31 76t31 75.5t74 30.5t73.5 -30.5t30.5 -75.5z" />
<glyph unicode="&#xf102;" horiz-adv-x="614" d="M236 1729h139l217 -244h-156l-133 149l-131 -149h-149z" />
<glyph unicode="&#xf103;" horiz-adv-x="614" d="M143 1485h-98q0 106 41 157q40 49 98 50q51 0 129 -41q72 -37 101 -37q31 0 41 16q16 25 18 70h96q0 -203 -141 -203q-51 0 -129 39q-80 39 -102 39q-44 0 -54 -90z" />
<glyph unicode="&#xf112;" horiz-adv-x="614" d="M98 1729h230l188 -242h-154z" />
<glyph unicode="&#xfb01;" horiz-adv-x="1105" d="M31 846v145h139v53q0 201 119 320q117 117 327 117q72 0 146 -18.5t117 -49.5l-54 -145q-94 59 -217 59q-250 0 -250 -289v-47h594v-991h-190v846h-402v-846h-190v846h-139z" />
<glyph unicode="&#xfb02;" horiz-adv-x="1105" d="M31 846v145h139v41q0 199 119 324t354 125q174 0 309 -68v-1413h-190v1307q-47 27 -150 26q-123 0 -188.5 -77.5t-65.5 -217.5v-47h236v-145h-234v-846h-190v846h-139z" />
<glyph unicode="&#xfb03;" horiz-adv-x="1736" d="M1368 1292q0 49 35 84t88 35q51 0 86 -35t35 -84q0 -51 -35 -86t-88 -35t-88 35q-33 33 -33 86zM1395 0v991h190v-991h-190zM652 846v145h139v45q0 213 96 328q98 117 271 117q84 0 157 -29l-22 -147q-55 23 -119 22q-195 0 -195 -285v-51h244v-145h-242v-846h-190v846 h-139zM31 846v145h139v45q0 213 96 328q98 117 271 117q84 0 157 -29l-22 -147q-55 23 -119 22q-195 0 -195 -285v-51h244v-145h-242v-846h-190v846h-139z" />
<glyph unicode="&#xfb04;" horiz-adv-x="1736" d="M1395 0v1458h190v-1458h-190zM652 846v145h139v45q0 213 96 328q98 117 271 117q84 0 157 -29l-22 -147q-55 23 -119 22q-195 0 -195 -285v-51h244v-145h-242v-846h-190v846h-139zM31 846v145h139v45q0 213 96 328q98 117 271 117q84 0 157 -29l-22 -147q-55 23 -119 22 q-195 0 -195 -285v-51h244v-145h-242v-846h-190v846h-139z" />
</font>
</defs>
</svg>
